<svg width="72" height="70" viewBox="0 0 72 70" fill="none" xmlns="http://www.w3.org/2000/svg">
<path d="M64.7104 58.2081C63.9012 58.2081 63.3231 58.4971 62.8607 58.9017L63.0919 57.6879L60.8954 57.8035L59.6815 63.4682C59.4503 64.0462 58.8723 64.7399 58.2942 64.7399C57.8896 64.7399 57.6584 64.5665 57.6584 64.104C57.6584 63.9884 57.6584 63.7572 57.7162 63.5838L58.8723 58.2659H56.5601L55.5197 63.2948C55.4619 63.6994 55.4041 63.9884 55.4041 64.3353C55.4041 65.6647 56.1555 66.185 57.0804 66.185C57.6584 66.185 58.5833 66.0116 59.3925 65.0289L58.352 70L60.722 69.422L61.5312 65.6069C61.7046 65.896 62.1093 66.185 62.8607 66.185C65.8665 66.185 66.6757 62.7746 66.6757 60.6358C66.6179 58.8439 65.8087 58.2081 64.7104 58.2081ZM62.2827 64.8555C61.9359 64.8555 61.7624 64.6821 61.7046 64.5087L62.6295 60.1156C62.9185 59.6532 63.3809 59.3642 63.7278 59.3642C64.0168 59.3642 64.4792 59.422 64.4792 60.6358C64.4792 62.1387 63.959 64.8555 62.2827 64.8555ZM70.3752 58.3237C70.6642 56.5896 70.8954 55.8382 70.8954 55.8382L68.5832 56.185L68.1208 58.3237H67.6006L67.485 58.9017H68.0052L67.0226 63.5838C66.9648 63.8728 66.9069 64.1619 66.9069 64.3931C66.9069 65.4335 67.3694 66.185 68.4676 66.185C68.9879 66.185 69.6815 66.0116 70.1439 64.6243C70.0283 64.6821 69.8549 64.6821 69.7393 64.6821C69.3347 64.6821 69.2191 64.4509 69.2191 64.104L69.2769 63.5838L70.2596 58.8439H71.1844L71.3 58.2659H70.3752V58.3237ZM56.9069 56.185C56.9069 56.8786 57.4272 57.3988 58.1208 57.3988C58.8145 57.3988 59.3347 56.8786 59.3347 56.185C59.3347 55.4913 58.7567 54.9711 58.1208 54.9711C57.485 54.9711 56.9069 55.4913 56.9069 56.185ZM34.7104 59.6532C34.7104 58.9017 34.3636 58.1503 32.9763 58.1503C29.8549 58.1503 28.8145 61.7341 28.7567 63.5838C28.063 64.3353 27.3116 64.9133 26.2133 64.9133C25.4619 64.9133 25.1151 64.6821 25.1151 63.5838C25.1151 63.4104 25.1151 63.1792 25.1729 62.948C27.0226 62.8324 28.7567 61.4451 28.7567 59.6532C28.7567 58.9017 28.4098 58.1503 27.0226 58.1503C23.7856 58.1503 22.8029 61.9075 22.8029 63.6994C22.8029 65.4913 23.7856 66.185 25.2307 66.185C26.8492 66.185 27.9474 65.3179 28.8145 64.2775C29.0457 65.6069 29.9127 66.185 31.1844 66.185C32.4561 66.185 33.5544 65.6647 33.9012 63.8728C33.3809 64.2775 32.6295 64.6821 32.0515 64.6821C31.5312 64.6821 31.0688 64.3353 31.0688 63.3526C31.0688 63.237 31.0688 63.0636 31.1266 62.8902C32.9763 62.8324 34.7104 61.5029 34.7104 59.6532ZM33.0919 59.0173C33.3809 59.0173 33.4966 59.2486 33.4966 59.6532C33.4966 60.9827 32.4561 62.1965 31.1844 62.2543C31.5312 60.7515 32.3405 59.0173 33.0919 59.0173ZM27.0804 59.0173C27.3694 59.0173 27.485 59.2486 27.485 59.6532C27.485 60.9827 26.4445 62.1387 25.2307 62.2543C25.5197 60.6358 26.3289 59.0173 27.0804 59.0173ZM41.1844 57.5145C41.4156 57.7457 41.589 57.8613 41.9359 57.8613C42.6873 57.8613 43.2075 57.1676 43.2075 56.2428C43.2075 54.5087 41.4156 54.3931 40.6642 54.3931C38.6411 54.3931 37.0226 55.5491 37.0226 57.2254C37.0226 59.5376 40.2018 60.4624 40.2018 63.1792C40.2018 64.5087 39.4503 65.2601 38.352 65.2601C37.3694 65.2601 36.8492 64.5087 36.8492 63.7572C36.8492 62.7168 37.8318 62.3121 38.6989 62.3121C38.6411 61.5029 37.8318 61.2717 37.3116 61.2717C36.2133 61.2717 34.9994 62.1387 34.9994 63.815C34.9994 65.7225 36.5601 66.5318 38.352 66.5318C40.6642 66.5318 42.7451 65.2601 42.7451 62.6012C42.7451 59.2486 39.2191 58.9017 39.2191 56.5896C39.2191 55.6647 39.7971 55.2023 40.6642 55.2023C41.5312 55.2023 41.8202 55.7225 41.8202 56.2428C41.9359 56.7052 41.6468 57.2254 41.1844 57.5145ZM23.7278 58.3237H22.1093L22.3983 56.9942C22.6295 55.9538 23.1497 55.7804 23.4388 55.7804C23.7278 55.7804 24.0168 55.896 24.0168 56.2428C24.0168 56.3584 24.0168 56.5896 23.959 56.5896H24.7104C24.7682 56.5896 24.7682 56.3006 24.7682 56.0116C24.7682 54.9711 23.8434 54.3353 22.9185 54.3353C22.2249 54.3353 21.4156 54.5665 20.7798 55.3179C20.4908 54.7399 19.7971 54.3353 19.1035 54.3353C18.063 54.3353 16.7335 54.7977 16.2711 56.9942L15.5775 60.289C15.1151 60.4624 14.7104 60.578 14.3058 60.578C14.248 60.578 14.1902 60.578 14.1324 60.5202C14.1324 58.9017 13.4966 58.0347 12.1093 57.9769C8.93008 57.9769 7.88962 61.5607 7.83182 63.4104C7.13818 64.2197 6.09771 64.6821 4.99945 64.6821C3.49656 64.6821 3.14974 63.6416 3.14974 62.2543C3.14974 59.0751 4.71043 54.9711 6.38673 54.9711C7.08037 54.9711 7.36939 55.4335 7.36939 55.9538C7.36939 56.5318 7.02257 57.1676 6.61794 57.3988C6.90696 57.7457 7.25378 57.8035 7.5428 57.8035C8.35205 57.8035 8.64107 57.2254 8.64107 56.3584C8.64107 54.8555 7.485 54.2775 6.03991 54.2775C1.93586 54.2775 0.606384 59.5954 0.606384 62.4277C0.606384 65.2601 1.70465 66.2428 4.01679 66.2428C5.23066 66.2428 6.90696 65.6647 7.94742 64.2775C8.17864 65.4913 9.1613 66.0116 10.3752 66.0116C12.2827 66.0116 13.8434 64.2197 14.1324 61.3295C14.5948 61.2717 15.0572 61.1561 15.4619 60.9827L14.4214 65.896C12.9185 66.3584 11.7046 66.8208 11.7046 68.2659C11.7046 69.3064 12.6295 69.9422 13.5544 69.9422C14.248 69.9422 15.0572 69.7688 15.6931 68.9595C15.9243 69.5376 16.5023 69.9422 17.3694 69.9422C18.4098 69.9422 19.7393 69.5376 20.2018 67.2832L21.9937 58.8439H23.5544L23.7278 58.3237ZM12.8607 61.5029C12.6295 63.3526 11.8203 64.7977 11.0688 64.7399C10.4908 64.7399 10.2596 64.5087 10.2596 63.4682C10.2596 61.9075 11.1844 59.0751 12.3405 59.0751C12.7451 59.0751 12.9185 59.3064 12.9185 60C12.6295 60.1156 12.4561 60.4046 12.4561 60.8671C12.4561 61.1561 12.5139 61.4451 12.8607 61.5029ZM14.248 67.4567C14.0168 68.3815 13.67 68.6705 13.3231 68.6705C12.9763 68.6705 12.6873 68.3815 12.6873 68.1503C12.6873 67.2832 13.4388 66.8786 14.4214 66.5318L14.248 67.4567ZM17.9474 67.4567C17.7162 68.3815 17.3694 68.6705 17.0226 68.6705C16.6179 68.6705 16.2711 68.6127 16.0977 68.3815C16.2133 68.0925 16.3289 67.8035 16.3867 67.3988L16.6757 65.9538L18.2942 65.6647L17.9474 67.4567ZM18.4098 65.2601L16.7914 65.5491L18.1786 58.9017H19.7393L18.4098 65.2601ZM20.2018 56.6474L19.8549 58.3237H18.2942L18.5833 57.052C18.8145 56.0116 19.3347 55.8382 19.6237 55.8382C19.9705 55.8382 20.2018 56.0116 20.2018 56.3584C20.2596 56.4162 20.2596 56.5318 20.2018 56.6474ZM55.6931 59.4798C55.6931 58.8439 55.2885 58.2659 54.5948 58.2659C53.8434 58.2659 53.2075 58.7861 52.6873 59.2486L52.9185 58.2659L50.6642 58.3237L49.6237 63.2948C48.8723 64.1619 48.063 64.8555 46.8492 64.8555C46.0977 64.8555 45.6931 64.6243 45.6931 63.526C45.6931 61.7919 46.7335 58.9017 47.7162 58.9017C48.0052 58.9017 48.1208 59.133 48.1208 59.5376C48.1208 59.8266 48.063 60.1156 47.9474 60.4624C48.1208 60.578 48.2942 60.6358 48.4676 60.6358C48.9301 60.6358 49.2769 60.2312 49.2769 59.4798C49.2769 58.7861 48.9301 58.0347 47.5428 58.0347C44.3636 58.0347 43.3231 61.7919 43.3231 63.5838C43.3231 65.3757 44.3058 66.0694 45.7509 66.0694C47.3116 66.0694 48.4098 65.3757 49.2769 64.3931L48.8723 66.3006H51.1266L52.3405 60.2312C52.7451 59.8844 53.0341 59.5954 53.4965 59.5954C53.959 59.5954 53.5544 60.578 54.4214 60.578C55.3463 60.6936 55.6931 60 55.6931 59.4798ZM29.2191 7.45666C34.9994 6.93643 36.6757 3.23701 43.4387 2.65897C46.7913 2.36996 48.8723 3.0636 49.1035 4.21967C49.3347 5.31793 47.6584 6.06938 45.6931 6.24279C42.9185 6.53181 41.7624 5.54915 41.5312 4.56649C39.4503 4.7977 39.1613 5.66475 39.2769 6.30059C39.5081 7.45666 41.9937 8.61273 46.2711 8.26591C51.0688 7.86129 52.6873 6.01158 52.3405 4.04626C51.8202 1.56071 48.1208 -0.520215 41.4734 0.115623C32.9185 0.867068 32.9763 4.85551 27.1382 5.31793C24.7682 5.54915 23.4388 4.97111 23.2075 4.04626C23.0341 3.1214 24.1902 2.65898 25.5775 2.54337C26.8492 2.42776 28.4098 2.65897 29.1035 3.0636C29.6815 2.77458 29.7971 2.48556 29.7971 2.19655C29.5659 1.3295 27.774 0.924871 25.5775 1.09828C21.2422 1.50291 21.2422 3.41042 21.4156 4.27747C21.7624 6.30059 25.1151 7.80348 29.2191 7.45666ZM17.2538 12.948C22.5717 14.2775 29.3925 15.0289 37.6006 15.0289C45.9821 15.0289 52.6295 14.3353 57.9474 12.948C63.6122 11.6185 66.3289 9.8266 66.3289 8.1503C66.3289 6.93643 65.115 5.78036 62.9185 4.85551C63.4387 5.20233 63.7856 5.72256 63.7856 6.3584C63.7856 8.0925 61.2422 9.47978 56.0977 10.6359C51.3 11.6763 45.2307 12.4278 37.774 12.4278C30.6064 12.4278 24.248 11.7341 19.6237 10.6937C14.7104 9.47978 12.0515 8.1503 12.0515 6.4162C12.0515 5.72256 12.3983 5.08672 13.3809 4.33528C10.2596 5.54915 8.58326 6.53181 8.58326 8.0925C8.81448 9.88441 11.589 11.6185 17.2538 12.948ZM9.10349 39.7688C11.3 41.5029 13.7278 41.9653 16.4445 41.5029C17.485 41.3295 18.6411 40.8093 19.7393 40.4624C17.5428 40.4624 15.6353 39.7688 13.7278 38.2659C11.6468 36.763 10.3174 34.6821 9.97054 32.0809C9.45031 29.711 9.97054 27.4567 11.3 25.5491L12.2249 24.5087C12.9763 26.3584 13.8434 28.2081 14.7682 29.8844C16.8492 33.0058 18.8723 35.7226 20.9532 38.6705C21.8203 40.4046 22.4561 42.0809 22.8607 43.815C24.1902 45.7226 26.1555 46.9942 28.5255 47.6879C31.4734 48.7283 34.537 49.0751 37.6006 49.0751H37.9474C41.0688 49.0751 44.3058 48.6705 47.3116 47.6879C49.5081 46.9942 51.4156 45.6069 52.8029 43.8728H52.9763C53.3231 42.1387 53.8434 40.4046 54.7104 38.6705C56.7913 35.7226 58.8145 33.0058 60.8954 29.8844C63.6122 24.9711 65.5197 19.3064 66.5601 13.237C65.4619 14.7977 62.9185 16.1272 58.2942 17.1676C52.9763 18.3815 46.1555 19.1908 37.9474 19.1908C29.5659 19.1908 22.7451 18.3237 17.4272 17.1098C12.6295 15.896 10.0862 14.5665 9.2191 13.1792C9.68153 16.3006 10.433 19.3064 11.4734 22.1965C10.2596 22.948 9.1613 23.9306 8.17864 25.1445C6.27112 27.5145 5.46187 30.289 5.63529 33.0058C5.8087 35.7226 7.02257 38.0347 9.10349 39.7688Z" fill="#2C4173"/>
</svg>
