<svg width="46" height="45" viewBox="0 0 46 45" fill="none" xmlns="http://www.w3.org/2000/svg">
<path d="M0.510588 23.7074C0.511744 16.6087 2.5085 11.4649 6.51241 7.18166C11.2016 2.16508 17.0821 -0.228124 23.932 0.0170948C29.0487 0.199853 33.6443 1.9962 37.5245 5.35408C42.7695 9.8918 45.4457 15.7123 45.4422 22.6455C45.4388 28.5065 43.36 33.6653 39.3387 37.922C34.8218 42.7026 29.1666 45.0889 22.5997 44.9975C16.443 44.9107 11.1426 42.5719 6.82094 38.1718C3.10244 34.3848 0.37308 28.6754 0.510588 23.7074ZM21.7932 20.0464C21.7932 23.1498 21.7932 26.2093 21.7932 29.293C22.3836 29.293 22.9568 29.293 23.575 29.293C23.575 28.1826 23.575 27.0826 23.575 25.9294C24.9258 27.5372 27.5512 27.1138 28.2976 25.1197C28.7598 23.8843 28.7506 22.6374 28.1855 21.4206C27.4807 19.903 25.4446 19.3767 24.0938 20.3657C23.9251 20.4894 23.776 20.641 23.5496 20.8388C23.5496 20.5172 23.5496 20.2835 23.5496 20.0464C22.9475 20.0464 22.3859 20.0464 21.7932 20.0464ZM18.2954 23.3152C17.5639 22.6212 16.7504 22.4859 15.8849 22.546C15.0576 22.6039 14.3908 22.9705 14.0338 23.727C13.6998 24.4361 13.7195 25.1729 14.1586 25.8565C14.749 26.7761 15.9658 27.167 17.1213 26.7738C17.5292 26.6349 17.9013 26.3863 18.2861 26.1896C18.2954 26.362 18.3046 26.5494 18.315 26.731C18.917 26.731 19.4867 26.731 20.0703 26.731C20.0703 25.2053 20.0968 23.7131 20.0599 22.2222C20.0391 21.4194 19.7167 20.7277 18.9748 20.309C17.988 19.7515 16.9388 19.7723 15.8849 20.0302C15.2517 20.1852 14.6647 20.4617 14.199 20.944C14.429 21.3408 14.6427 21.7109 14.8692 22.1007C15.484 21.564 16.153 21.2806 16.9353 21.3118C17.7315 21.3431 18.2538 21.7595 18.2931 22.4003C18.3092 22.6698 18.2954 22.9382 18.2954 23.3152ZM10.2806 17.9042C10.2806 17.482 10.2806 17.0934 10.2806 16.6677C9.88656 16.6908 9.53066 16.7163 9.17476 16.7325C8.23415 16.7753 7.32475 17.7562 7.32822 18.7197C7.33169 19.5421 7.30626 20.3645 7.28893 21.1869C7.27853 21.7005 7.18262 22.1643 6.5829 22.2754C6.5829 22.6073 6.5829 22.9127 6.5829 23.2111C7.09018 23.3835 7.24387 23.5466 7.26466 24.0717C7.29471 24.8421 7.25195 25.6171 7.3028 26.3863C7.33169 26.8235 7.39408 27.3 7.59515 27.676C8.17176 28.7552 9.19325 28.8546 10.2841 28.754C10.2841 28.3584 10.2841 27.9813 10.2841 27.5881C10.1223 27.5881 9.99403 27.5788 9.86692 27.5892C8.83503 27.6794 8.57966 27.1323 8.57735 26.3099C8.57504 25.5638 8.56695 24.8166 8.57966 24.0706C8.5889 23.5396 8.4953 23.0619 8.00305 22.7323C8.45255 22.42 8.58197 21.9989 8.5785 21.5085C8.57157 20.6722 8.56926 19.8359 8.5785 18.9985C8.58659 18.242 8.93441 17.9065 9.68897 17.9042C9.87847 17.9042 10.068 17.9042 10.2806 17.9042ZM37.9775 22.7392C37.5222 23.1163 37.4032 23.3812 37.3963 24.0116C37.387 24.8987 37.4044 25.7871 37.3662 26.6743C37.3385 27.307 36.9653 27.6066 36.3309 27.5973C36.1183 27.5938 35.9068 27.5973 35.6884 27.5973C35.6884 28.0056 35.6884 28.3711 35.6884 28.7748C36.0039 28.7748 36.2985 28.791 36.5909 28.7725C37.758 28.6962 38.5749 27.9166 38.6523 26.7448C38.7043 25.9629 38.6778 25.1764 38.6778 24.3921C38.6778 23.8519 38.7402 23.3569 39.378 23.2077C39.378 23.0237 39.378 22.8688 39.378 22.7149C39.378 22.5634 39.378 22.4107 39.378 22.2661C38.8627 22.0799 38.6905 21.8335 38.6812 21.239C38.672 20.5565 38.6604 19.8741 38.6824 19.1928C38.7355 17.4913 37.5869 16.4595 35.6907 16.7348C35.6907 17.1084 35.6907 17.4855 35.6907 17.9077C35.9808 17.9077 36.2465 17.9193 36.51 17.9054C36.9052 17.8834 37.1444 18.1009 37.2796 18.427C37.3593 18.6214 37.3859 18.8492 37.3894 19.0632C37.4021 19.8741 37.3882 20.6849 37.3974 21.4958C37.4032 21.9839 37.5014 22.4431 37.9775 22.7392ZM29.905 20.0476C29.905 22.2985 29.905 24.517 29.905 26.7437C30.4955 26.7437 31.0559 26.7437 31.636 26.7437C31.636 24.5043 31.636 22.2858 31.636 20.0476C31.0536 20.0476 30.4931 20.0476 29.905 20.0476ZM30.7647 17.2114C30.1661 17.2114 29.7212 17.6497 29.7189 18.2431C29.7155 18.8516 30.1754 19.3084 30.7843 19.3015C31.369 19.2957 31.8185 18.833 31.8128 18.2443C31.807 17.6463 31.3656 17.2102 30.7647 17.2114Z" fill="black"/>
<path d="M21.7937 20.0463C22.3853 20.0463 22.9469 20.0463 23.5513 20.0463C23.5513 20.2834 23.5513 20.5171 23.5513 20.8387C23.7766 20.6409 23.9257 20.4893 24.0955 20.3656C25.4452 19.3754 27.4824 19.9017 28.1873 21.4205C28.7523 22.6373 28.7616 23.8842 28.2993 25.1196C27.5529 27.1137 24.9275 27.5371 23.5767 25.9293C23.5767 27.0825 23.5767 28.1825 23.5767 29.2929C22.9585 29.2929 22.3853 29.2929 21.7949 29.2929C21.7937 26.2092 21.7937 23.1497 21.7937 20.0463ZM23.5536 23.373C23.5536 23.6945 23.5443 24.0161 23.5582 24.3377C23.564 24.4591 23.5882 24.6118 23.6645 24.6916C24.4976 25.5684 26.0114 25.6366 26.566 24.355C26.7867 23.8437 26.8283 23.3198 26.6932 22.7784C26.3881 21.5535 25.1436 21.0665 24.0736 21.7432C23.7049 21.9768 23.4854 22.2556 23.549 22.7183C23.5778 22.9323 23.5536 23.1544 23.5536 23.373Z" fill="#FEFAF6"/>
<path d="M18.2957 23.3153C18.2957 22.9382 18.3096 22.6687 18.2934 22.4015C18.2541 21.7607 17.7318 21.3443 16.9356 21.313C16.1533 21.2818 15.4843 21.5652 14.8695 22.1019C14.6442 21.7121 14.4293 21.342 14.1993 20.9452C14.665 20.4629 15.252 20.1864 15.8852 20.0314C16.9391 19.7735 17.9883 19.7527 18.9751 20.3102C19.7181 20.7301 20.0405 21.4206 20.0602 22.2234C20.0983 23.7143 20.0706 25.2065 20.0706 26.7322C19.487 26.7322 18.9174 26.7322 18.3153 26.7322C18.3061 26.5506 18.2957 26.3632 18.2864 26.1908C17.9016 26.3875 17.5307 26.635 17.1217 26.775C15.9661 27.1682 14.7482 26.7761 14.1589 25.8577C13.7209 25.1752 13.7001 24.4373 14.0341 23.7282C14.3911 22.9717 15.0567 22.6051 15.8852 22.5472C16.7507 22.4859 17.5654 22.6224 18.2957 23.3153ZM18.2888 24.7461C18.3234 24.7288 18.3569 24.7114 18.3916 24.6952C18.2645 24.4812 18.1871 24.1978 18.0022 24.066C17.4487 23.6692 16.8258 23.6045 16.1845 23.8693C15.7928 24.0301 15.6125 24.3551 15.6125 24.7484C15.6137 25.0989 15.794 25.3788 16.1314 25.5408C16.7103 25.8184 17.2742 25.7432 17.8358 25.4933C18.1547 25.3511 18.3743 25.1429 18.2888 24.7461Z" fill="#FEFAF6"/>
<path d="M10.2807 17.9042C10.0681 17.9042 9.87858 17.9031 9.68907 17.9042C8.93567 17.9065 8.5867 18.242 8.57861 18.9985C8.56936 19.8348 8.57052 20.671 8.57861 21.5085C8.58323 21.9989 8.45381 22.42 8.00316 22.7323C8.49426 23.0619 8.58901 23.5396 8.57976 24.0706C8.56705 24.8166 8.57514 25.5639 8.57745 26.3099C8.57977 27.1323 8.83514 27.6795 9.86703 27.5892C9.99413 27.5777 10.1224 27.5881 10.2842 27.5881C10.2842 27.9814 10.2842 28.3596 10.2842 28.754C9.1922 28.8547 8.17186 28.7563 7.59525 27.676C7.39419 27.3001 7.33179 26.8235 7.3029 26.3863C7.25322 25.6171 7.29597 24.8432 7.26477 24.0717C7.24397 23.5454 7.09029 23.3835 6.58301 23.2111C6.58301 22.9127 6.58301 22.6074 6.58301 22.2754C7.18273 22.1643 7.27864 21.7005 7.28904 21.1869C7.30521 20.3645 7.33064 19.5421 7.32833 18.7197C7.32486 17.7562 8.23426 16.7753 9.17486 16.7325C9.53077 16.7163 9.88667 16.6909 10.2807 16.6677C10.2807 17.0934 10.2807 17.482 10.2807 17.9042Z" fill="#FEFAF6"/>
<path d="M37.9779 22.7392C37.503 22.4431 37.4036 21.985 37.399 21.4934C37.3897 20.6826 37.4036 19.8718 37.3909 19.0609C37.3874 18.8469 37.3608 18.6202 37.2811 18.4247C37.1459 18.0974 36.9067 17.8811 36.5115 17.9031C36.2469 17.9181 35.9811 17.9054 35.6923 17.9054C35.6923 17.4832 35.6923 17.1061 35.6923 16.7325C37.5885 16.4572 38.7371 17.489 38.6839 19.1905C38.662 19.8718 38.6735 20.5542 38.6828 21.2367C38.6909 21.8312 38.863 22.0776 39.3796 22.2638C39.3796 22.4084 39.3796 22.5611 39.3796 22.7126C39.3796 22.8664 39.3796 23.0203 39.3796 23.2054C38.7417 23.3546 38.6781 23.8496 38.6793 24.3898C38.6805 25.1741 38.7059 25.9618 38.6539 26.7425C38.5765 27.9143 37.7595 28.6939 36.5924 28.7702C36.3001 28.7887 36.0054 28.7725 35.6899 28.7725C35.6899 28.37 35.6899 28.0033 35.6899 27.595C35.9083 27.595 36.1198 27.5927 36.3324 27.595C36.9668 27.6043 37.34 27.3047 37.3678 26.672C37.4059 25.7859 37.3886 24.8976 37.3978 24.0093C37.4024 23.3812 37.5215 23.1151 37.9779 22.7392Z" fill="#FEFAF6"/>
<path d="M29.905 20.0475C30.4932 20.0475 31.0536 20.0475 31.636 20.0475C31.636 22.2868 31.636 24.5042 31.636 26.7436C31.0559 26.7436 30.4955 26.7436 29.905 26.7436C29.905 24.517 29.905 22.2996 29.905 20.0475Z" fill="#FEFAF6"/>
<path d="M30.7647 17.2114C31.3656 17.2114 31.807 17.6463 31.8116 18.2444C31.8174 18.8343 31.3679 19.2958 30.7832 19.3016C30.1742 19.3074 29.7155 18.8505 29.7178 18.2432C29.7224 17.6498 30.1661 17.2114 30.7647 17.2114Z" fill="#FEFAF6"/>
<path d="M23.5534 23.3731C23.5534 23.1545 23.5776 22.9324 23.5487 22.7173C23.4852 22.2546 23.7047 21.9758 24.0733 21.7422C25.1434 21.0644 26.3879 21.5513 26.6929 22.7774C26.8281 23.3188 26.7865 23.8439 26.5658 24.354C26.0123 25.6356 24.4974 25.5674 23.6643 24.6906C23.588 24.6096 23.5638 24.457 23.558 24.3367C23.5441 24.0174 23.5534 23.6947 23.5534 23.3731Z" fill="black"/>
<path d="M18.2885 24.7462C18.374 25.1429 18.1545 25.3512 17.8356 25.4934C17.2751 25.7433 16.7101 25.8185 16.1311 25.5409C15.7937 25.3789 15.6123 25.099 15.6123 24.7485C15.6112 24.3552 15.7926 24.0302 16.1843 23.8694C16.8256 23.6057 17.4484 23.6693 18.0019 24.0661C18.1868 24.1991 18.2643 24.4813 18.3914 24.6953C18.3567 24.7127 18.3232 24.7289 18.2885 24.7462Z" fill="black"/>
</svg>
