<svg width="55" height="43" viewBox="0 0 55 43" fill="none" xmlns="http://www.w3.org/2000/svg">
<path fill-rule="evenodd" clip-rule="evenodd" d="M12.0783 0C8.99637 0 6.71591 2.69578 6.81802 5.61927C6.91603 8.42796 6.7887 12.0656 5.87238 15.0321C4.95279 18.007 3.39865 19.8921 0.859619 20.1341V22.8659C3.39865 23.1084 4.95279 24.9926 5.87227 27.9679C6.7887 30.9344 6.91592 34.572 6.81792 37.3807C6.7158 40.3038 8.99626 43 12.0787 43H43.658C46.7399 43 49.0199 40.3042 48.9178 37.3807C48.8198 34.572 48.9472 30.9344 49.8635 27.9679C50.7831 24.9926 52.3334 23.1077 54.8725 22.8659V20.1341C52.3335 19.8916 50.7832 18.0074 49.8635 15.0321C48.947 12.066 48.8198 8.42796 48.9178 5.61927C49.0199 2.6962 46.7399 0 43.658 0H12.0778H12.0783ZM37.4786 26.4693C37.4786 30.4948 34.474 32.9362 29.4878 32.9362H21C20.7572 32.9362 20.5243 32.8398 20.3527 32.6683C20.181 32.4967 20.0845 32.264 20.0845 32.0213V10.9788C20.0845 10.7361 20.181 10.5034 20.3527 10.3318C20.5243 10.1603 20.7572 10.0639 21 10.0639H29.4395C33.5971 10.0639 36.3257 12.3145 36.3257 15.77C36.3257 18.1954 34.4902 20.3667 32.1517 20.747V20.8736C35.3351 21.2225 37.4786 23.4259 37.4786 26.4693ZM28.5623 12.9641H23.7227V19.7958H27.7989C30.95 19.7958 32.6875 18.5277 32.6875 16.2611C32.6872 14.137 31.1934 12.9641 28.5623 12.9641ZM23.7227 22.5064V30.0351H28.7404C32.0213 30.0351 33.7591 28.7194 33.7591 26.247C33.7591 23.7745 31.9725 22.506 28.5294 22.506H23.7227V22.5064Z" fill="#7952B3"/>
</svg>
