<svg width="46" height="45" viewBox="0 0 46 45" fill="none" xmlns="http://www.w3.org/2000/svg">
<path d="M0.571045 0H45.5402V44.9691H0.571045V0Z" fill="#F26522"/>
<path d="M19.1094 28.0985H25.9877V26.2272H21.2336V23.3276H25.6169V21.4563H21.2336V18.742H25.9877V16.8707H19.1094V28.0985ZM35.1756 25.0471C35.1756 22.8048 35.0239 22.316 32.0062 21.591C30.0674 21.119 30.0337 21.0853 30.0337 19.804C30.0337 18.8263 30.2867 18.5227 31.7197 18.5227C32.6974 18.5227 33.7932 18.6577 34.7205 18.86L34.9566 17.073C33.8438 16.8201 32.6637 16.702 31.6858 16.702C28.8368 16.702 27.9096 17.7137 27.9096 19.7534C27.9096 22.1306 28.2804 22.6532 30.9947 23.2601C33.0178 23.6984 33.0516 23.7994 33.0516 25.0471C33.0516 26.126 32.7986 26.4464 31.2644 26.4464C30.1518 26.4464 29.1403 26.2441 28.0951 25.9237L27.7241 27.5928C28.4659 27.9468 29.9496 28.2672 31.2308 28.2672C34.5519 28.2672 35.1756 27.1712 35.1756 25.0471ZM39.0869 20.8662C39.0869 19.1465 39.913 18.8093 41.9022 18.8093C42.2564 18.8093 42.9982 18.86 43.487 18.9612L43.6219 17.2415C43.116 17.1236 42.3069 17.0393 41.6832 17.0393C38.6149 17.0393 37.0301 17.9833 37.0301 20.9504V25.0471C37.0301 26.9859 37.6033 28.267 40.5029 28.267C43.1498 28.267 43.959 26.9522 43.959 25.1989V24.3896C43.959 22.4509 43.1329 21.6079 41.0931 21.6079C40.3682 21.6079 39.6769 21.7091 39.0869 21.9114V20.8662ZM40.7727 23.3782C41.5145 23.3782 41.9022 23.6311 41.9022 24.4402V25.2664C41.9022 26.126 41.5649 26.497 40.5031 26.497C39.4409 26.497 39.0869 26.1935 39.0869 25.2664V23.7321C39.5589 23.5298 40.1658 23.3782 40.7727 23.3782Z" fill="#FEFAF6"/>
<path d="M25.1868 15.6555C25.1876 15.5749 25.1933 15.4893 25.2226 15.407C25.2464 15.3409 25.283 15.2837 25.3505 15.2564C25.4438 15.2186 25.5359 15.2217 25.6195 15.2829C25.6709 15.3206 25.6964 15.3767 25.713 15.4363C25.7393 15.5298 25.7423 15.6254 25.7379 15.7217C25.7349 15.7881 25.7264 15.854 25.7035 15.9169C25.6794 15.9828 25.6417 16.0377 25.5752 16.0675C25.4949 16.1036 25.3595 16.1011 25.2846 16.0216C25.2431 15.9776 25.2215 15.9237 25.2075 15.8663C25.1914 15.799 25.187 15.7304 25.1868 15.6555ZM25.6217 15.6621C25.6206 15.6621 25.6193 15.6621 25.6182 15.6621C25.6182 15.6282 25.6201 15.594 25.6176 15.5604C25.6141 15.5079 25.6075 15.4557 25.5859 15.4067C25.5627 15.354 25.5228 15.3253 25.464 15.325C25.4047 15.3244 25.3623 15.3523 25.341 15.4065C25.3284 15.439 25.3196 15.474 25.3147 15.5087C25.301 15.6036 25.3019 15.699 25.3117 15.7941C25.3164 15.8401 25.3243 15.8857 25.3462 15.9275C25.3708 15.9746 25.4101 15.9981 25.4632 15.9981C25.5162 15.9981 25.5561 15.9754 25.5804 15.9281C25.5876 15.9141 25.5936 15.8994 25.5979 15.8843C25.6187 15.8116 25.6204 15.737 25.6217 15.6621Z" fill="black"/>
<path d="M25.8811 15.6806C25.8822 15.5748 25.8879 15.4889 25.9175 15.4066C25.9412 15.3405 25.9779 15.2833 26.0454 15.256C26.1386 15.2183 26.2308 15.2213 26.3144 15.2825C26.3658 15.3203 26.3912 15.3763 26.4079 15.4359C26.4342 15.5294 26.4372 15.6251 26.4328 15.7213C26.4298 15.7875 26.4213 15.8525 26.3986 15.9151C26.3768 15.9761 26.3429 16.0278 26.2843 16.06C26.2053 16.1038 26.0492 16.1073 25.9691 16.0103C25.9311 15.9641 25.9114 15.9102 25.8991 15.8528C25.8942 15.8301 25.8901 15.8074 25.8879 15.7845C25.8844 15.7437 25.8825 15.7024 25.8811 15.6806ZM26.3128 15.6614C26.3128 15.6281 26.3144 15.5945 26.3125 15.5611C26.309 15.5086 26.3027 15.4564 26.2811 15.4075C26.2578 15.3539 26.2174 15.3252 26.1583 15.3249C26.099 15.3246 26.0569 15.3528 26.0358 15.4072C26.0233 15.4397 26.0145 15.4747 26.0093 15.5094C25.9965 15.5939 25.9973 15.6792 26.0036 15.764C26.0074 15.8165 26.014 15.8687 26.0358 15.9176C26.0596 15.9704 26.0998 15.9983 26.1586 15.998C26.2171 15.9977 26.2573 15.9695 26.2808 15.9168C26.2854 15.9061 26.2895 15.8949 26.2928 15.8837C26.3133 15.811 26.3152 15.7361 26.3128 15.6614Z" fill="black"/>
<path d="M26.7305 16.0748C26.6939 16.0748 26.66 16.0748 26.6261 16.0748C26.6236 16.0748 26.6214 16.0746 26.6184 16.0743C26.6184 15.7987 26.6184 15.5242 26.6184 15.2481C26.6225 15.2481 26.6258 15.2481 26.6291 15.2481C26.7103 15.2481 26.7915 15.2478 26.8729 15.2484C26.9169 15.2487 26.9601 15.2549 27.0017 15.2711C27.0826 15.3022 27.1261 15.3621 27.1378 15.4466C27.1439 15.4903 27.1425 15.5341 27.131 15.5767C27.1083 15.6615 27.0504 15.7099 26.9672 15.7287C26.9325 15.7367 26.8962 15.7391 26.8606 15.7408C26.818 15.7427 26.7751 15.7413 26.7308 15.7413C26.7305 15.8523 26.7305 15.9625 26.7305 16.0748ZM26.7305 15.6511C26.7871 15.6494 26.8429 15.6514 26.8981 15.6456C26.9566 15.6393 26.9987 15.6065 27.0148 15.548C27.0208 15.5267 27.0225 15.5032 27.0217 15.481C27.0192 15.407 26.9749 15.3534 26.9016 15.3443C26.8456 15.3372 26.7882 15.3397 26.7305 15.3381C26.7305 15.4433 26.7305 15.5453 26.7305 15.6511Z" fill="black"/>
<path d="M27.3276 15.291C27.3276 15.2653 27.3276 15.2399 27.3276 15.2126C27.3927 15.2126 27.4569 15.2106 27.5182 15.2361C27.5638 15.2549 27.5797 15.2948 27.5865 15.3391C27.5909 15.3667 27.592 15.3949 27.5928 15.4228C27.5942 15.4769 27.5909 15.5313 27.5958 15.5849C27.6027 15.6628 27.6338 15.6893 27.712 15.6932C27.7298 15.694 27.7476 15.6932 27.7664 15.6932C27.7664 15.7197 27.7664 15.7454 27.7664 15.7733C27.7615 15.7733 27.7563 15.773 27.7511 15.7733C27.732 15.7741 27.7126 15.7738 27.6937 15.776C27.6316 15.7831 27.601 15.8121 27.5969 15.8747C27.5931 15.9335 27.595 15.9928 27.5931 16.0516C27.5923 16.0806 27.5898 16.1095 27.5854 16.138C27.5761 16.1989 27.5401 16.2345 27.4791 16.2468C27.4293 16.2566 27.3796 16.258 27.3285 16.2572C27.3285 16.2309 27.3285 16.2052 27.3285 16.179C27.3555 16.1776 27.3826 16.1773 27.4094 16.1749C27.4613 16.17 27.4837 16.1492 27.4867 16.0978C27.49 16.0379 27.4884 15.9778 27.4906 15.9179C27.4914 15.8889 27.4941 15.8599 27.499 15.8315C27.507 15.785 27.5362 15.756 27.5802 15.7407C27.5863 15.7386 27.592 15.7366 27.5999 15.7339C27.5964 15.7325 27.5947 15.732 27.5928 15.7314C27.5261 15.7098 27.4974 15.6762 27.4936 15.6065C27.4903 15.5461 27.4914 15.4857 27.49 15.425C27.4898 15.4072 27.4889 15.3894 27.487 15.3719C27.4818 15.3214 27.461 15.3 27.4105 15.2951C27.3834 15.2929 27.3563 15.2924 27.3276 15.291Z" fill="black"/>
<path d="M24.9851 16.2575C24.9268 16.2583 24.8694 16.2577 24.8134 16.2416C24.7573 16.2255 24.7341 16.1836 24.7262 16.1306C24.7221 16.1041 24.7207 16.0768 24.7202 16.05C24.7185 15.9926 24.7182 15.9349 24.7171 15.8775C24.7169 15.8693 24.715 15.8608 24.713 15.8529C24.7016 15.8058 24.675 15.7826 24.6253 15.7768C24.6004 15.7741 24.5755 15.7738 24.5496 15.7722C24.5496 15.7471 24.5496 15.7216 24.5496 15.6937C24.5539 15.6937 24.5586 15.694 24.5632 15.6937C24.5829 15.6929 24.6026 15.6932 24.6223 15.691C24.6824 15.6842 24.7125 15.656 24.7169 15.5956C24.7207 15.5417 24.7191 15.4876 24.7207 15.4335C24.7218 15.402 24.7223 15.3706 24.727 15.3394C24.736 15.2703 24.7653 15.2396 24.8336 15.2235C24.8834 15.2118 24.9339 15.2118 24.9853 15.2129C24.9853 15.2394 24.9853 15.2645 24.9853 15.2921C24.9801 15.2921 24.9749 15.2919 24.9698 15.2921C24.9468 15.293 24.9236 15.293 24.9006 15.2951C24.8527 15.3001 24.8322 15.3203 24.8268 15.3679C24.8243 15.3892 24.824 15.4111 24.8235 15.4327C24.8221 15.4909 24.8227 15.5491 24.8199 15.6068C24.8183 15.6399 24.8109 15.6738 24.7847 15.6965C24.7655 15.7129 24.7412 15.7238 24.7193 15.7372C24.7185 15.7361 24.7177 15.7353 24.7169 15.7342C24.7191 15.7353 24.721 15.7367 24.7232 15.7372C24.7874 15.7544 24.8169 15.7995 24.8202 15.8624C24.8232 15.9242 24.8224 15.9863 24.8238 16.0483C24.824 16.0661 24.8249 16.0839 24.8268 16.1014C24.8322 16.15 24.8525 16.1705 24.9009 16.1752C24.9287 16.1779 24.9566 16.1782 24.9853 16.1795C24.9851 16.2047 24.9851 16.2301 24.9851 16.2575Z" fill="black"/>
</svg>
