<svg width="1020" height="45" viewBox="0 0 1020 45" fill="none" xmlns="http://www.w3.org/2000/svg">
<path d="M923.861 11.4153H918.202V28.9436H915.89V11.4153H910.266V9.34504H923.861V11.4153ZM934.523 14.9348L928.07 31.1863C926.932 34.0847 925.31 35.5339 923.24 35.5339C922.653 35.5339 922.17 35.4649 921.791 35.3614V33.3601C922.274 33.5326 922.722 33.6017 923.102 33.6017C924.24 33.6017 925.069 32.9116 925.655 31.5659L926.759 28.909L921.308 14.9348H923.792L927.587 25.7001C927.622 25.8382 927.725 26.1832 927.863 26.7698H927.932C927.967 26.5627 928.07 26.2177 928.208 25.7346L932.176 14.9348H934.523ZM938.18 26.9078H938.111V35.3614H935.868V14.9348H938.111V17.3846H938.18C939.284 15.5213 940.906 14.5897 943.011 14.5897C944.805 14.5897 946.22 15.2108 947.22 16.453C948.221 17.6951 948.739 19.3858 948.739 21.4906C948.739 23.8369 948.152 25.7001 947.013 27.1148C945.875 28.5295 944.322 29.2196 942.355 29.2196C940.595 29.2886 939.181 28.495 938.18 26.9078ZM938.146 21.2836V23.2503C938.146 24.4235 938.525 25.3896 939.284 26.1832C940.043 26.9768 940.975 27.3909 942.148 27.3909C943.494 27.3909 944.564 26.8733 945.357 25.8382C946.116 24.803 946.496 23.3538 946.496 21.4906C946.496 19.9379 946.151 18.6957 945.426 17.8331C944.702 16.936 943.735 16.522 942.493 16.522C941.182 16.522 940.147 16.9705 939.353 17.8676C938.525 18.7648 938.146 19.9034 938.146 21.2836ZM962.471 22.4912H952.603C952.638 24.0439 953.052 25.2516 953.845 26.1142C954.639 26.9768 955.743 27.3909 957.158 27.3909C958.745 27.3909 960.194 26.8733 961.505 25.8382V27.9429C960.263 28.84 958.641 29.2886 956.64 29.2886C954.673 29.2886 953.121 28.6675 951.982 27.3909C950.843 26.1142 950.291 24.32 950.291 22.0427C950.291 19.8689 950.912 18.0747 952.154 16.729C953.397 15.3488 954.915 14.6587 956.744 14.6587C958.572 14.6587 959.987 15.2453 960.988 16.453C961.988 17.6261 962.506 19.2823 962.506 21.3871L962.471 22.4912ZM960.159 20.5935C960.159 19.2823 959.849 18.2817 959.228 17.5571C958.607 16.8325 957.744 16.4875 956.675 16.4875C955.605 16.4875 954.708 16.867 953.983 17.6261C953.259 18.3852 952.776 19.3858 952.603 20.5935H960.159ZM963.575 28.2535V26.7008C964.99 27.5979 966.405 28.0464 967.854 28.0464C969.372 28.0464 970.545 27.7359 971.339 27.0803C972.133 26.4247 972.512 25.5621 972.512 24.4235C972.512 23.4228 972.236 22.6292 971.718 22.0082C971.201 21.4216 970.028 20.5935 968.268 19.5584C966.267 18.3852 965.025 17.4191 964.507 16.66C963.989 15.8664 963.713 14.9693 963.713 13.9686C963.713 12.5885 964.266 11.4153 965.335 10.4492C966.405 9.48306 967.854 9 969.648 9C970.821 9 971.995 9.20703 973.133 9.58658V11.0013C971.995 10.4837 970.752 10.2077 969.441 10.2077C968.096 10.2077 967.06 10.5527 966.267 11.2083C965.473 11.8984 965.094 12.7265 965.094 13.7616C965.094 14.7622 965.37 15.5558 965.887 16.1424C966.405 16.729 967.578 17.5571 969.338 18.5577C971.166 19.5929 972.374 20.5245 972.995 21.3181C973.616 22.1117 973.892 23.0433 973.892 24.1129C973.892 25.6311 973.375 26.8388 972.34 27.8049C971.304 28.771 969.821 29.2196 967.923 29.2196C967.233 29.2196 966.474 29.1161 965.577 28.909C964.68 28.702 964.024 28.5295 963.575 28.2535ZM985.555 28.3225C984.52 28.9436 983.277 29.2886 981.828 29.2886C979.931 29.2886 978.378 28.633 977.205 27.3218C976.032 26.0107 975.445 24.32 975.445 22.1807C975.445 19.9724 976.101 18.1437 977.412 16.729C978.723 15.3143 980.414 14.5897 982.484 14.5897C983.553 14.5897 984.589 14.7967 985.589 15.2453V16.66C984.589 16.0389 983.484 15.7284 982.311 15.7284C980.655 15.7284 979.344 16.3149 978.309 17.4881C977.274 18.6612 976.791 20.2139 976.791 22.0772C976.791 23.9059 977.274 25.3551 978.205 26.4592C979.137 27.5634 980.379 28.1154 981.897 28.1154C983.312 28.1154 984.52 27.7359 985.555 27.0113V28.3225ZM993.905 16.2459C993.491 15.9354 993.008 15.7974 992.421 15.7974C991.317 15.7974 990.385 16.3839 989.661 17.5226C988.902 18.6612 988.557 20.2829 988.557 22.3877V28.9781H987.314V14.9348H988.557V18.0402H988.626C988.936 16.9705 989.454 16.1424 990.144 15.5558C990.834 14.9693 991.628 14.6587 992.559 14.6587C993.077 14.6587 993.56 14.7277 993.939 14.9003V16.2459H993.905ZM995.906 11.4153C995.63 11.4153 995.389 11.3118 995.181 11.1048C994.974 10.8977 994.871 10.6562 994.871 10.3457C994.871 10.0351 994.974 9.7936 995.181 9.62108C995.389 9.44856 995.63 9.34504 995.906 9.34504C996.182 9.34504 996.424 9.44856 996.665 9.62108C996.872 9.7936 996.976 10.0351 996.976 10.3457C996.976 10.6217 996.872 10.8977 996.665 11.1048C996.424 11.3118 996.182 11.4153 995.906 11.4153ZM995.285 28.9436V14.9348H996.527V28.9436H995.285ZM1000.84 26.4592H1000.77V35.3959H999.529V14.9348H1000.77V17.8331H1000.84C1001.36 16.798 1002.05 16.0044 1002.98 15.4523C1003.91 14.9003 1004.95 14.6242 1006.05 14.6242C1007.84 14.6242 1009.22 15.2453 1010.23 16.453C1011.23 17.6951 1011.71 19.3513 1011.71 21.4561C1011.71 23.8024 1011.12 25.7001 1009.98 27.1493C1008.85 28.5985 1007.33 29.3231 1005.46 29.3231C1003.39 29.2886 1001.84 28.357 1000.84 26.4592ZM1000.77 21.2491V23.0088C1000.77 24.4235 1001.22 25.6311 1002.08 26.6318C1002.98 27.6324 1004.12 28.15 1005.57 28.15C1006.98 28.15 1008.16 27.5289 1009.05 26.3212C1009.95 25.0791 1010.4 23.4919 1010.4 21.4906C1010.4 19.7309 1009.98 18.3507 1009.16 17.3156C1008.33 16.2804 1007.26 15.7629 1005.88 15.7629C1004.26 15.7629 1002.98 16.3149 1002.08 17.4191C1001.19 18.5232 1000.77 19.7654 1000.77 21.2491ZM1019.33 28.7365C1018.68 29.0471 1018.06 29.1851 1017.51 29.1851C1015.44 29.1851 1014.4 27.9429 1014.4 25.4586V16.1079H1011.88V14.9693H1014.4V11.3118L1015.02 11.1048L1015.64 10.8977V14.9693H1019.33V16.1079H1015.64V25.3551C1015.64 26.3212 1015.78 27.0113 1016.09 27.4599C1016.4 27.9084 1016.92 28.1154 1017.64 28.1154C1018.16 28.1154 1018.71 27.9429 1019.33 27.5979V28.7365Z" fill="#007ACC"/>
<path d="M446.305 25.5214C444.557 25.5312 443.043 25.9511 441.773 26.5762C441.305 25.6484 440.836 24.8377 440.758 24.2323C440.67 23.5291 440.563 23.0993 440.67 22.2594C440.777 21.4194 441.266 20.2279 441.266 20.1303C441.256 20.0424 441.158 19.6126 440.152 19.6029C439.146 19.5931 438.277 19.7982 438.179 20.0619C438.082 20.3256 437.886 20.9311 437.759 21.5562C437.584 22.4742 435.748 25.7264 434.703 27.4356C434.361 26.7715 434.068 26.1855 434.009 25.7166C433.921 25.0135 433.814 24.5837 433.921 23.7439C434.029 22.9038 434.517 21.7124 434.517 21.6148C434.507 21.5269 434.41 21.0971 433.404 21.0874C432.398 21.0776 431.529 21.2827 431.431 21.5464C431.333 21.8101 431.226 22.4351 431.011 23.0407C430.806 23.6462 428.364 29.0764 427.729 30.4925C427.407 31.2152 427.124 31.7914 426.919 32.1821C426.714 32.5727 426.909 32.2114 426.889 32.2505C426.714 32.5825 426.616 32.7681 426.616 32.7681V32.7779C426.479 33.0221 426.333 33.2564 426.264 33.2564C426.215 33.2564 426.118 32.602 426.284 31.7036C426.645 29.8186 427.524 26.879 427.514 26.7716C427.514 26.7227 427.68 26.205 426.948 25.9414C426.235 25.6777 425.981 26.1172 425.922 26.1172C425.864 26.1172 425.815 26.2735 425.815 26.2735C425.815 26.2735 426.606 22.9627 424.301 22.9627C422.856 22.9627 420.863 24.5351 419.877 25.9708C419.252 26.3126 417.924 27.0353 416.517 27.8069C415.98 28.0999 415.423 28.4124 414.896 28.6957L414.789 28.5783C411.995 25.5995 406.829 23.4899 407.044 19.4857C407.122 18.0305 407.63 14.1922 416.967 9.54339C424.614 5.73447 430.737 6.77948 431.802 9.1039C433.316 12.4245 428.53 18.5969 420.58 19.4857C417.553 19.8275 415.961 18.6555 415.56 18.216C415.14 17.757 415.082 17.7375 414.925 17.8254C414.672 17.9621 414.828 18.3723 414.925 18.6165C415.16 19.2317 416.137 20.3256 417.797 20.8725C419.252 21.3511 422.807 21.6148 427.104 19.9545C431.919 18.0891 435.679 12.9128 434.576 8.58628C433.453 4.1816 426.147 2.73616 419.242 5.18754C415.13 6.65252 410.677 8.93787 407.474 11.9362C403.665 15.4912 403.059 18.5969 403.313 19.8861C404.202 24.4861 410.54 27.4844 413.08 29.7014C412.953 29.7697 412.835 29.838 412.728 29.8967C411.458 30.5217 406.624 33.0513 405.413 35.7272C404.046 38.7548 405.628 40.9329 406.682 41.2258C409.944 42.1341 413.285 40.5031 415.091 37.8173C416.888 35.1316 416.674 31.6449 415.843 30.053L415.814 29.9944L416.81 29.4084C417.455 29.0275 418.09 28.6759 418.646 28.3731C418.334 29.2227 418.109 30.2287 417.992 31.6937C417.855 33.4127 418.559 35.6393 419.486 36.5183C419.897 36.8991 420.385 36.909 420.688 36.909C421.762 36.909 422.25 36.0201 422.787 34.9557C423.452 33.6567 424.038 32.1527 424.038 32.1527C424.038 32.1527 423.305 36.2253 425.307 36.2253C426.04 36.2253 426.772 35.278 427.104 34.7896V34.7994C427.104 34.7994 427.124 34.7701 427.163 34.7017C427.204 34.6412 427.243 34.5793 427.28 34.5163V34.4967C427.573 33.9889 428.227 32.8267 429.204 30.9027C430.464 28.422 431.675 25.3163 431.675 25.3163C431.675 25.3163 431.792 26.078 432.153 27.3282C432.368 28.0705 432.837 28.881 433.198 29.6721C432.905 30.0823 432.73 30.3168 432.73 30.3168L432.739 30.3266C432.505 30.6391 432.241 30.9712 431.968 31.3032C430.972 32.4947 429.78 33.8524 429.624 34.243C429.438 34.7019 429.477 35.0438 429.839 35.3173C430.103 35.5127 430.571 35.5516 431.069 35.5127C431.968 35.454 432.593 35.2294 432.905 35.0926C433.394 34.9168 433.95 34.6531 434.488 34.2624C435.464 33.5398 436.06 32.5143 436.001 31.147C435.972 30.395 435.728 29.6528 435.425 28.9496C435.513 28.8226 435.601 28.6956 435.689 28.5589C437.232 26.3028 438.424 23.8222 438.424 23.8222C438.424 23.8222 438.541 24.584 438.902 25.8341C439.088 26.4689 439.459 27.1624 439.791 27.8461C438.345 29.0278 437.437 30.3951 437.125 31.2936C436.548 32.9539 436.998 33.706 437.847 33.8818C438.228 33.9599 438.775 33.7841 439.185 33.6083C439.693 33.4423 440.308 33.1589 440.875 32.7391C441.852 32.0164 442.789 31.0104 442.74 29.6529C442.711 29.0278 442.545 28.4125 442.32 27.8265C443.551 27.3187 445.143 27.0257 447.165 27.2698C451.511 27.7777 452.37 30.4928 452.204 31.6257C452.038 32.7587 451.13 33.3837 450.827 33.579C450.524 33.7646 450.427 33.833 450.456 33.9696C450.495 34.1748 450.632 34.165 450.895 34.126C451.257 34.0673 453.181 33.1982 453.259 31.1083C453.376 28.4221 450.827 25.4921 446.305 25.5214ZM412.787 36.8212C411.351 38.3936 409.329 38.9893 408.47 38.4815C407.542 37.9443 407.903 35.6297 409.671 33.9596C410.745 32.9439 412.142 32.0063 413.06 31.4301C413.265 31.3031 413.578 31.1176 413.949 30.8929C414.007 30.8539 414.046 30.8343 414.046 30.8343C414.115 30.7953 414.193 30.7464 414.271 30.6976C414.925 33.0806 414.3 35.1706 412.787 36.8212ZM423.286 29.6819C422.787 30.9027 421.733 34.0377 421.098 33.8619C420.551 33.7154 420.219 31.3422 420.99 28.9982C421.381 27.8164 422.211 26.4101 422.699 25.8631C423.491 24.9841 424.35 24.6911 424.565 25.0525C424.819 25.5214 423.598 28.9201 423.286 29.6819ZM431.948 33.8229C431.734 33.9304 431.538 34.0084 431.45 33.9499C431.382 33.9109 431.538 33.7644 431.538 33.7644C431.538 33.7644 432.622 32.6021 433.052 32.065C433.296 31.7526 433.589 31.3912 433.902 30.9809V31.0981C433.902 32.5044 432.554 33.442 431.948 33.8229ZM438.629 32.2993C438.472 32.1821 438.492 31.8207 439.019 30.6878C439.224 30.2386 439.693 29.4865 440.504 28.7736C440.601 29.0666 440.66 29.3497 440.65 29.6135C440.641 31.3715 439.39 32.0258 438.629 32.2993Z" fill="#CF649A"/>
<path d="M50.5056 22.5051C50.5056 19.1577 46.3157 15.9854 39.8918 14.0181C41.3743 7.46738 40.7154 2.25566 37.8123 0.587091C37.1432 0.195697 36.3608 0.0102997 35.5063 0.0102997V2.30716C35.9799 2.30716 36.3608 2.39986 36.6799 2.57496C38.08 3.37835 38.6874 6.4374 38.2138 10.3719C38.1006 11.3401 37.9153 12.3598 37.6888 13.4001C35.671 12.9057 33.468 12.5246 31.1517 12.2774C29.7619 10.3719 28.3206 8.64156 26.8691 7.12749C30.2251 4.00664 33.3753 2.29686 35.5166 2.29686V0C32.6856 0 28.9795 2.01877 25.2322 5.52071C21.485 2.03937 17.7789 0.0411995 14.9479 0.0411995V2.33806C17.0789 2.33806 20.2393 4.03754 23.5954 7.13779C22.1541 8.65187 20.7129 10.3719 19.3437 12.2774C17.0171 12.5246 14.814 12.9057 12.7963 13.4104C12.5595 12.3804 12.3845 11.3813 12.2609 10.4234C11.7771 6.4889 12.3742 3.42985 13.764 2.61616C14.0728 2.43076 14.4743 2.34836 14.9479 2.34836V0.0514992C14.0831 0.0514992 13.3007 0.236896 12.6213 0.62829C9.72846 2.29686 9.0799 7.49828 10.5726 14.0284C4.16934 16.0059 0 19.168 0 22.5051C0 25.8526 4.18993 29.0249 10.6138 30.9922C9.13137 37.5429 9.79023 42.7546 12.6933 44.4232C13.3625 44.8146 14.1449 45 15.0096 45C17.8407 45 21.5467 42.9812 25.294 39.4793C29.0413 42.9606 32.7473 44.9588 35.5784 44.9588C36.4431 44.9588 37.2255 44.7734 37.905 44.382C40.7978 42.7134 41.4463 37.512 39.9536 30.9819C46.3363 29.0146 50.5056 25.8423 50.5056 22.5051ZM37.102 15.6352C36.7211 16.9638 36.2475 18.3337 35.7122 19.7036C35.2901 18.8796 34.8475 18.0556 34.3636 17.2316C33.89 16.4076 33.3856 15.6043 32.8812 14.8215C34.343 15.0378 35.7534 15.3056 37.102 15.6352ZM32.387 26.6045C31.584 27.995 30.7605 29.3133 29.906 30.539C28.3721 30.6729 26.8176 30.745 25.2528 30.745C23.6983 30.745 22.1438 30.6729 20.6202 30.5493C19.7658 29.3236 18.9319 28.0156 18.1289 26.6354C17.3465 25.2861 16.6362 23.9162 15.9876 22.536C16.6259 21.1559 17.3465 19.7757 18.1186 18.4264C18.9216 17.0359 19.7452 15.7176 20.5996 14.4919C22.1335 14.358 23.688 14.2859 25.2528 14.2859C26.8073 14.2859 28.3618 14.358 29.8854 14.4816C30.7399 15.7073 31.5737 17.0153 32.3767 18.3955C33.1591 19.7448 33.8695 21.1147 34.518 22.4948C33.8695 23.875 33.1591 25.2552 32.387 26.6045ZM35.7122 25.2655C36.2681 26.6457 36.7417 28.0259 37.1329 29.3648C35.7843 29.6944 34.3636 29.9725 32.8915 30.1888C33.3959 29.3957 33.9003 28.5821 34.3739 27.7478C34.8475 26.9238 35.2901 26.0895 35.7122 25.2655ZM25.2734 36.2554C24.316 35.2666 23.3586 34.1646 22.4115 32.9595C23.338 33.0007 24.2851 33.0316 25.2425 33.0316C26.2102 33.0316 27.1676 33.011 28.1044 32.9595C27.1779 34.1646 26.2205 35.2666 25.2734 36.2554ZM17.6142 30.1888C16.1523 29.9725 14.742 29.7047 13.3934 29.3751C13.7743 28.0465 14.2478 26.6766 14.7831 25.3067C15.2052 26.1307 15.6479 26.9547 16.1317 27.7787C16.6156 28.6027 17.1097 29.406 17.6142 30.1888ZM25.2219 8.75486C26.1793 9.74365 27.1367 10.8457 28.0839 12.0508C27.1573 12.0096 26.2102 11.9787 25.2528 11.9787C24.2851 11.9787 23.3277 11.9993 22.3909 12.0508C23.3174 10.8457 24.2748 9.74365 25.2219 8.75486ZM17.6039 14.8215C17.0994 15.6146 16.595 16.4282 16.1214 17.2625C15.6479 18.0865 15.2052 18.9105 14.7831 19.7345C14.2272 18.3543 13.7537 16.9741 13.3625 15.6352C14.7111 15.3159 16.1317 15.0378 17.6039 14.8215ZM8.28721 27.7169C4.6429 26.1616 2.28542 24.1222 2.28542 22.5051C2.28542 20.8881 4.6429 18.8384 8.28721 17.2934C9.17255 16.9123 10.1402 16.5724 11.1388 16.2531C11.7256 18.2719 12.4977 20.3731 13.4551 22.5257C12.508 24.6681 11.7462 26.759 11.1697 28.7674C10.1505 28.4482 9.18285 28.098 8.28721 27.7169ZM13.8257 42.4353C12.4257 41.6319 11.8183 38.5729 12.2918 34.6384C12.4051 33.6702 12.5904 32.6505 12.8169 31.6102C14.8346 32.1046 17.0377 32.4857 19.354 32.7329C20.7438 34.6384 22.185 36.3687 23.6366 37.8828C20.2805 41.0037 17.1303 42.7134 14.989 42.7134C14.5258 42.7031 14.1346 42.6104 13.8257 42.4353ZM38.2447 34.5869C38.7285 38.5214 38.1314 41.5805 36.7417 42.3941C36.4328 42.5795 36.0313 42.6619 35.5578 42.6619C33.4268 42.6619 30.2663 40.9625 26.9103 37.8622C28.3515 36.3481 29.7928 34.6281 31.162 32.7226C33.4886 32.4754 35.6916 32.0943 37.7094 31.5896C37.9461 32.6299 38.1315 33.629 38.2447 34.5869ZM42.2081 27.7169C41.3228 28.098 40.3551 28.4379 39.3565 28.7572C38.7697 26.7384 37.9976 24.6372 37.0402 22.4845C37.9873 20.3422 38.7491 18.2513 39.3256 16.2428C40.3448 16.5621 41.3125 16.9123 42.2184 17.2934C45.8627 18.8487 48.2202 20.8881 48.2202 22.5051C48.2099 24.1222 45.8525 26.1719 42.2081 27.7169Z" fill="#61DAFB"/>
<path d="M25.2425 27.2123C27.8408 27.2123 29.9472 25.1049 29.9472 22.5052C29.9472 19.9056 27.8408 17.7982 25.2425 17.7982C22.6442 17.7982 20.5378 19.9056 20.5378 22.5052C20.5378 25.1049 22.6442 27.2123 25.2425 27.2123Z" fill="#61DAFB"/>
<path d="M811.073 21.0205C811.093 19.0145 811.236 16.8861 811.964 14.8393C812.556 13.1936 813.467 11.7724 815.148 11.0924C817.468 10.154 819.76 10.2288 821.842 11.752C823.121 12.6904 823.754 14.0845 824.169 15.5669C824.822 17.8925 824.896 20.2725 824.788 22.6661C824.713 24.3185 824.502 25.9574 823.93 27.5214C823.332 29.1602 822.393 30.527 820.74 31.2682C818.74 32.1658 815.372 32.1046 813.508 30.1258C812.474 29.031 811.937 27.6914 811.59 26.2634C811.188 24.5905 811.08 22.8837 811.073 21.0205ZM821.896 21.1837C821.869 21.1837 821.835 21.1837 821.808 21.1837C821.808 20.3405 821.856 19.4905 821.794 18.6541C821.706 17.3485 821.543 16.0497 821.005 14.8325C820.427 13.52 819.434 12.806 817.971 12.7992C816.495 12.7856 815.44 13.4792 814.91 14.8257C814.597 15.6349 814.379 16.5053 814.257 17.3689C813.916 19.7285 813.937 22.1017 814.182 24.4681C814.297 25.6106 814.495 26.7462 815.039 27.7866C815.651 28.9562 816.631 29.541 817.951 29.541C819.27 29.541 820.264 28.9766 820.869 27.8002C821.046 27.4534 821.196 27.0862 821.304 26.7122C821.822 24.9033 821.862 23.0469 821.896 21.1837Z" fill="black"/>
<path d="M828.352 21.6462C828.38 19.0146 828.522 16.8794 829.257 14.8325C829.849 13.1869 830.761 11.7657 832.441 11.0857C834.761 10.1473 837.053 10.2221 839.135 11.7453C840.414 12.6837 841.047 14.0777 841.462 15.5602C842.115 17.8858 842.19 20.2658 842.081 22.6594C842.006 24.305 841.795 25.9234 841.23 27.4807C840.686 28.9971 839.843 30.2823 838.387 31.0847C836.421 32.1727 832.536 32.2611 830.543 29.8471C829.597 28.6979 829.107 27.3583 828.801 25.9302C828.679 25.3658 828.577 24.8014 828.522 24.2302C828.434 23.217 828.386 22.1902 828.352 21.6462ZM839.094 21.1702C839.094 20.3406 839.135 19.5042 839.087 18.6746C838.999 17.369 838.843 16.0702 838.305 14.8529C837.727 13.5201 836.72 12.8061 835.251 12.7993C833.774 12.7925 832.727 13.4929 832.203 14.8461C831.89 15.6554 831.672 16.5258 831.543 17.3894C831.223 19.4906 831.244 21.6122 831.4 23.7202C831.495 25.0258 831.659 26.3246 832.203 27.5419C832.795 28.8543 833.795 29.5479 835.257 29.5411C836.713 29.5343 837.713 28.8339 838.298 27.5215C838.414 27.2563 838.516 26.9775 838.598 26.6987C839.108 24.8898 839.155 23.0266 839.094 21.1702Z" fill="black"/>
<path d="M849.489 31.4518C848.578 31.4518 847.734 31.4518 846.891 31.4518C846.829 31.4518 846.775 31.445 846.7 31.4382C846.7 24.5837 846.7 17.7565 846.7 10.8884C846.802 10.8884 846.884 10.8884 846.966 10.8884C848.986 10.8884 851.006 10.8816 853.034 10.8952C854.129 10.902 855.204 11.0584 856.238 11.4596C858.252 12.2348 859.333 13.724 859.626 15.8253C859.776 16.9133 859.742 18.0013 859.456 19.0621C858.891 21.1701 857.449 22.3737 855.381 22.8429C854.517 23.0401 853.612 23.1013 852.728 23.1421C851.666 23.1897 850.598 23.1557 849.496 23.1557C849.489 25.9166 849.489 28.657 849.489 31.4518ZM849.489 20.9117C850.898 20.8709 852.285 20.9185 853.66 20.7757C855.116 20.6193 856.163 19.8033 856.565 18.3481C856.714 17.8177 856.755 17.2329 856.735 16.6821C856.673 14.8393 855.571 13.5064 853.748 13.282C852.353 13.1052 850.925 13.1664 849.489 13.1256C849.489 15.7437 849.489 18.2801 849.489 20.9117Z" fill="black"/>
<path d="M864.347 11.956C864.347 11.3168 864.347 10.6844 864.347 10.0044C865.966 10.0044 867.565 9.95675 869.089 10.5892C870.225 11.0584 870.62 12.0512 870.79 13.1528C870.898 13.8396 870.926 14.54 870.946 15.2336C870.98 16.58 870.898 17.9332 871.021 19.266C871.191 21.2041 871.967 21.8637 873.912 21.9589C874.354 21.9793 874.797 21.9589 875.266 21.9589C875.266 22.6185 875.266 23.2577 875.266 23.9513C875.144 23.9513 875.014 23.9445 874.885 23.9513C874.409 23.9717 873.926 23.9649 873.456 24.0193C871.912 24.1961 871.15 24.9169 871.048 26.4741C870.953 27.9361 871.001 29.4117 870.953 30.8737C870.932 31.5946 870.871 32.3154 870.762 33.0226C870.531 34.539 869.633 35.423 868.116 35.729C866.878 35.9738 865.64 36.0078 864.368 35.9874C864.368 35.3346 864.368 34.6954 864.368 34.0426C865.041 34.0086 865.715 34.0018 866.381 33.9406C867.674 33.8182 868.232 33.3014 868.307 32.023C868.388 30.5337 868.347 29.0377 868.402 27.5485C868.422 26.8277 868.49 26.1069 868.613 25.3997C868.81 24.2437 869.538 23.5229 870.633 23.1421C870.783 23.0877 870.926 23.0401 871.123 22.9721C871.035 22.9381 870.994 22.9245 870.946 22.9109C869.286 22.3737 868.572 21.5373 868.477 19.8032C868.395 18.3004 868.422 16.7976 868.388 15.288C868.381 14.846 868.361 14.404 868.313 13.9688C868.184 12.7108 867.667 12.1804 866.408 12.058C865.735 12.0036 865.061 11.99 864.347 11.956Z" fill="black"/>
<path d="M806.052 35.9943C804.603 36.0147 803.175 36.0011 801.78 35.5999C800.385 35.1987 799.807 34.1582 799.61 32.839C799.508 32.1794 799.474 31.4994 799.46 30.833C799.419 29.405 799.413 27.9702 799.385 26.5422C799.379 26.3382 799.331 26.1274 799.283 25.9302C798.998 24.7606 798.338 24.1826 797.1 24.0398C796.48 23.9718 795.861 23.965 795.215 23.9242C795.215 23.2985 795.215 22.6661 795.215 21.9725C795.324 21.9725 795.44 21.9793 795.555 21.9725C796.045 21.9521 796.535 21.9589 797.025 21.9045C798.521 21.7345 799.27 21.0341 799.379 19.5313C799.474 18.1917 799.433 16.8453 799.474 15.4989C799.501 14.7169 799.515 13.9349 799.63 13.1597C799.855 11.4392 800.583 10.6776 802.283 10.2764C803.522 9.98403 804.78 9.98403 806.059 10.0112C806.059 10.6708 806.059 11.2964 806.059 11.9832C805.93 11.9832 805.801 11.9764 805.671 11.9832C805.1 12.0036 804.522 12.0036 803.95 12.058C802.76 12.1804 802.249 12.6837 802.113 13.8669C802.052 14.3973 802.045 14.9413 802.032 15.4785C801.998 16.9269 802.011 18.3753 801.943 19.8101C801.902 20.6329 801.719 21.4761 801.066 22.0405C800.589 22.4485 799.984 22.7205 799.44 23.0537C799.419 23.0265 799.399 23.0061 799.379 22.9789C799.433 23.0061 799.481 23.0401 799.535 23.0537C801.134 23.4822 801.868 24.6042 801.95 26.1682C802.025 27.705 802.004 29.2486 802.039 30.7922C802.045 31.2342 802.066 31.6762 802.113 32.1114C802.249 33.3218 802.753 33.8318 803.957 33.9474C804.651 34.0154 805.345 34.0222 806.059 34.0562C806.052 34.6819 806.052 35.3143 806.052 35.9943Z" fill="black"/>
<path d="M750.789 17.7856C750.503 17.7856 750.224 17.8445 749.978 17.984L742.176 22.4865C741.671 22.7773 741.364 23.3262 741.364 23.9104V32.8986C741.364 33.4823 741.671 34.0303 742.176 34.322L744.213 35.4976C745.203 35.9852 745.568 35.9777 746.019 35.9777C747.484 35.9777 748.321 35.089 748.321 33.5445V24.6719C748.321 24.5465 748.213 24.4565 748.089 24.4565H747.112C746.986 24.4565 746.88 24.5461 746.88 24.6719V33.5445C746.88 34.2292 746.166 34.9175 745.008 34.3389L742.887 33.0974C742.812 33.0569 742.755 32.9848 742.755 32.899V23.91C742.755 23.8247 742.812 23.738 742.887 23.6946L750.672 19.2091C750.744 19.1671 750.833 19.1671 750.904 19.2091L758.69 23.6946C758.764 23.7394 758.822 23.8219 758.822 23.91V32.8981C758.822 32.9838 758.779 33.072 758.706 33.1134L750.904 37.599C750.837 37.6386 750.745 37.6386 750.672 37.599L748.669 36.4079C748.608 36.3744 748.533 36.3744 748.471 36.4079C747.918 36.7212 747.814 36.7575 747.295 36.9375C747.167 36.9822 746.973 37.0515 747.361 37.2687L749.978 38.808C750.225 38.9503 750.505 39.0248 750.79 39.0234C751.075 39.0252 751.355 38.9508 751.602 38.808L759.404 34.322C759.909 34.0284 760.215 33.4823 760.215 32.8986V23.9104C760.215 23.3267 759.909 22.7787 759.404 22.487L751.602 17.9845C751.357 17.845 751.076 17.7856 750.789 17.7856Z" fill="#83CD29"/>
<path d="M752.877 24.2083C750.655 24.2083 749.332 25.153 749.332 26.7243C749.332 28.4286 750.645 28.8969 752.778 29.108C755.328 29.3577 755.527 29.7318 755.527 30.2336C755.527 31.1039 754.832 31.4752 753.192 31.4752C751.13 31.4752 750.677 30.9606 750.525 29.9358C750.507 29.8261 750.422 29.737 750.309 29.737H749.299C749.174 29.737 749.067 29.8444 749.067 29.9688C749.067 31.281 749.781 32.8326 753.192 32.8326C755.66 32.8326 757.084 31.8644 757.084 30.1677C757.084 28.486 755.934 28.0342 753.54 27.718C751.12 27.3981 750.889 27.2412 750.889 26.6753C750.889 26.2079 751.085 25.5827 752.877 25.5827C754.478 25.5827 755.07 25.9276 755.312 27.0066C755.333 27.1079 755.422 27.1884 755.527 27.1884H756.538C756.601 27.1884 756.661 27.1503 756.704 27.1055C756.746 27.0579 756.776 27.0042 756.77 26.9401C756.613 25.0823 755.373 24.2083 752.877 24.2083Z" fill="#83CD29"/>
<path d="M704.923 6.00016C704.835 6.00016 704.75 6.02277 704.674 6.06612C704.521 6.15564 704.427 6.31914 704.426 6.49677V19.1601C704.426 19.2844 704.368 19.3956 704.26 19.4578C704.153 19.5205 704.02 19.5205 703.912 19.4578L701.841 18.2662C701.534 18.0886 701.155 18.0886 700.848 18.2662L692.582 23.0336C692.273 23.2117 692.085 23.5542 692.085 23.9109V33.4456C692.085 33.8018 692.273 34.1278 692.582 34.3064L700.848 39.0738C701.155 39.2519 701.534 39.2519 701.841 39.0738L710.107 34.3064C710.415 34.1293 710.605 33.8008 710.604 33.4456V9.67484C710.604 9.3111 710.408 8.97609 710.091 8.79752L705.171 6.04963C705.094 6.00628 705.008 5.99874 704.923 6.00016ZM651.75 17.9015C651.593 17.9077 651.445 17.9355 651.303 18.0175L643.037 22.7848C642.729 22.962 642.539 23.2904 642.54 23.6456L642.557 36.4413C642.557 36.6189 642.649 36.7848 642.805 36.8715C642.958 36.9634 643.149 36.9634 643.302 36.8715L648.205 34.0576C648.516 33.8729 648.719 33.5525 648.719 33.1968V27.2209C648.719 26.8642 648.906 26.5372 649.216 26.3601L651.303 25.152C651.454 25.0643 651.625 25.0186 651.8 25.0196C651.97 25.0196 652.145 25.062 652.297 25.152L654.384 26.3601C654.692 26.5368 654.882 26.8656 654.881 27.2209V33.1963C654.881 33.5521 655.086 33.8748 655.394 34.0572L660.297 36.8715C660.45 36.9634 660.642 36.9634 660.794 36.8715C660.948 36.7824 661.043 36.6185 661.043 36.4408L661.059 23.6452C661.061 23.2899 660.871 22.9605 660.562 22.7843L652.297 18.0175C652.157 17.9355 652.008 17.9081 651.85 17.9015H651.75ZM726.026 18.0175C725.853 18.0175 725.684 18.0613 725.529 18.1499L717.263 22.9172C716.955 23.0944 716.765 23.4228 716.766 23.778V33.3122C716.766 33.6708 716.968 33.9959 717.279 34.1731L725.479 38.841C725.781 39.0134 726.151 39.0266 726.456 38.857L731.425 36.0926C731.583 36.005 731.69 35.842 731.69 35.6625C731.692 35.4844 731.597 35.3194 731.442 35.2318L723.126 30.4645C722.971 30.3759 722.861 30.1959 722.861 30.0173V27.0381C722.861 26.86 722.972 26.6965 723.126 26.6074L725.71 25.1176C725.864 25.0285 726.053 25.0285 726.207 25.1176L728.791 26.6074C728.945 26.696 729.04 26.86 729.039 27.0376V29.3883C729.039 29.5659 729.134 29.7299 729.288 29.8185C729.443 29.908 729.63 29.908 729.785 29.8185L734.738 26.9387C735.045 26.761 735.235 26.4326 735.235 26.0778V23.7771C735.235 23.4218 735.046 23.0948 734.738 22.9162L726.523 18.1499C726.372 18.0627 726.2 18.017 726.026 18.0175ZM701.311 25.135C701.355 25.135 701.405 25.1454 701.444 25.168L704.277 26.8067C704.354 26.851 704.409 26.9335 704.409 27.0221V30.2996C704.409 30.3886 704.354 30.4706 704.277 30.5149L701.444 32.1536C701.367 32.1974 701.272 32.1974 701.195 32.1536L698.363 30.5149C698.286 30.4701 698.231 30.3886 698.231 30.2996V27.0221C698.231 26.9335 698.286 26.852 698.363 26.8067L701.195 25.168C701.23 25.1468 701.27 25.1355 701.311 25.135Z" fill="#404137"/>
<path d="M676.58 17.9675C676.408 17.9675 676.237 18.0114 676.083 18.0999L667.818 22.8508C667.508 23.0284 667.321 23.3719 667.321 23.7281V33.2628C667.321 33.6195 667.509 33.9451 667.818 34.1236L676.084 38.8905C676.391 39.0691 676.77 39.0691 677.078 38.8905L685.343 34.1232C685.651 33.946 685.841 33.6176 685.84 33.2623V23.7281C685.84 23.3714 685.653 23.0289 685.343 22.8508L677.078 18.0999C676.926 18.0128 676.755 17.9671 676.58 17.9675ZM726.009 26.476C725.976 26.476 725.94 26.476 725.91 26.4925L724.32 27.4193C724.259 27.4527 724.222 27.5159 724.22 27.5851V29.4058C724.22 29.4745 724.26 29.5372 724.32 29.5716L725.91 30.4819C725.969 30.5163 726.033 30.5163 726.092 30.4819L727.682 29.5711C727.742 29.5377 727.78 29.4745 727.782 29.4058V27.5847C727.78 27.5159 727.743 27.4527 727.682 27.4193L726.092 26.492C726.062 26.4751 726.042 26.4765 726.009 26.476Z" fill="#83CD29"/>
<path d="M332.171 40.3459L328.873 0L368.263 0.0810771L364.775 40.3459L348.716 45L332.171 40.3459Z" fill="#E9CA32"/>
<path d="M348.717 41.1035V3.84241L364.938 3.89646L362.045 37.2338L348.717 41.1035Z" fill="#FFDE25"/>
<path d="M346.98 8.2666H342.691V33.0666L339.356 32.4307V29.0923L335.385 28.4564V35.9282L346.98 38.9487V8.2666ZM350.197 8.2666H362.069L361.275 13.0199H354.729V20.8202H361.275L360.48 36.5641L350.197 38.9487V34.0205L357.145 31.6359L357.546 25.1179L350.197 26.183V8.2666Z" fill="#FEFAF6"/>
<path d="M168.743 40.3459L165.442 0L204.86 0.0810771L201.37 40.3459L185.3 45L168.743 40.3459Z" fill="#E34F26"/>
<path d="M185.3 41.1035V3.84241L201.532 3.89646L198.637 37.2338L185.3 41.1035Z" fill="#EF652A"/>
<path d="M197.069 13.151L197.528 8.22595H172.558L173.937 23.3254H191.171L190.495 29.7654L184.976 31.2534L179.376 29.63L179.078 25.7876H174.127L174.803 33.6349L184.975 36.4761L195.229 33.6349L196.608 18.3193H178.51L177.996 13.151H197.069Z" fill="#FEFAF6"/>
<path d="M562.571 0H607.54V44.9691H562.571V0Z" fill="#F26522"/>
<path d="M581.109 28.0985H587.988V26.2272H583.234V23.3276H587.617V21.4563H583.234V18.742H587.988V16.8707H581.109V28.0985ZM597.176 25.0471C597.176 22.8048 597.024 22.316 594.006 21.591C592.067 21.119 592.034 21.0853 592.034 19.804C592.034 18.8263 592.287 18.5227 593.72 18.5227C594.697 18.5227 595.793 18.6577 596.721 18.86L596.957 17.073C595.844 16.8201 594.664 16.702 593.686 16.702C590.837 16.702 589.91 17.7137 589.91 19.7534C589.91 22.1306 590.28 22.6532 592.995 23.2601C595.018 23.6984 595.052 23.7994 595.052 25.0471C595.052 26.126 594.799 26.4464 593.264 26.4464C592.152 26.4464 591.14 26.2441 590.095 25.9237L589.724 27.5928C590.466 27.9468 591.95 28.2672 593.231 28.2672C596.552 28.2672 597.176 27.1712 597.176 25.0471ZM601.087 20.8662C601.087 19.1465 601.913 18.8093 603.902 18.8093C604.256 18.8093 604.998 18.86 605.487 18.9612L605.622 17.2415C605.116 17.1236 604.307 17.0393 603.683 17.0393C600.615 17.0393 599.03 17.9833 599.03 20.9504V25.0471C599.03 26.9859 599.603 28.267 602.503 28.267C605.15 28.267 605.959 26.9522 605.959 25.1989V24.3896C605.959 22.4509 605.133 21.6079 603.093 21.6079C602.368 21.6079 601.677 21.7091 601.087 21.9114V20.8662ZM602.773 23.3782C603.515 23.3782 603.902 23.6311 603.902 24.4402V25.2664C603.902 26.126 603.565 26.497 602.503 26.497C601.441 26.497 601.087 26.1935 601.087 25.2664V23.7321C601.559 23.5298 602.166 23.3782 602.773 23.3782Z" fill="#FEFAF6"/>
<path d="M587.187 15.6555C587.188 15.5749 587.193 15.4893 587.223 15.407C587.246 15.3409 587.283 15.2837 587.351 15.2564C587.444 15.2186 587.536 15.2217 587.62 15.2829C587.671 15.3206 587.696 15.3767 587.713 15.4363C587.739 15.5298 587.742 15.6254 587.738 15.7217C587.735 15.7881 587.726 15.854 587.703 15.9169C587.679 15.9828 587.642 16.0377 587.575 16.0675C587.495 16.1036 587.36 16.1011 587.285 16.0216C587.243 15.9776 587.221 15.9237 587.208 15.8663C587.191 15.799 587.187 15.7304 587.187 15.6555ZM587.622 15.6621C587.621 15.6621 587.619 15.6621 587.618 15.6621C587.618 15.6282 587.62 15.594 587.618 15.5604C587.614 15.5079 587.608 15.4557 587.586 15.4067C587.563 15.354 587.523 15.3253 587.464 15.325C587.405 15.3244 587.362 15.3523 587.341 15.4065C587.328 15.439 587.32 15.474 587.315 15.5087C587.301 15.6036 587.302 15.699 587.312 15.7941C587.316 15.8401 587.324 15.8857 587.346 15.9275C587.371 15.9746 587.41 15.9981 587.463 15.9981C587.516 15.9981 587.556 15.9754 587.58 15.9281C587.588 15.9141 587.594 15.8994 587.598 15.8843C587.619 15.8116 587.62 15.737 587.622 15.6621Z" fill="black"/>
<path d="M587.881 15.6806C587.882 15.5748 587.888 15.4889 587.917 15.4066C587.941 15.3405 587.978 15.2833 588.045 15.256C588.139 15.2183 588.231 15.2213 588.314 15.2825C588.366 15.3203 588.391 15.3763 588.408 15.4359C588.434 15.5294 588.437 15.6251 588.433 15.7213C588.43 15.7875 588.421 15.8525 588.399 15.9151C588.377 15.9761 588.343 16.0278 588.284 16.06C588.205 16.1038 588.049 16.1073 587.969 16.0103C587.931 15.9641 587.911 15.9102 587.899 15.8528C587.894 15.8301 587.89 15.8074 587.888 15.7845C587.884 15.7437 587.882 15.7024 587.881 15.6806ZM588.313 15.6614C588.313 15.6281 588.314 15.5945 588.313 15.5611C588.309 15.5086 588.303 15.4564 588.281 15.4075C588.258 15.3539 588.217 15.3252 588.158 15.3249C588.099 15.3246 588.057 15.3528 588.036 15.4072C588.023 15.4397 588.015 15.4747 588.009 15.5094C587.996 15.5939 587.997 15.6792 588.004 15.764C588.007 15.8165 588.014 15.8687 588.036 15.9176C588.06 15.9704 588.1 15.9983 588.159 15.998C588.217 15.9977 588.257 15.9695 588.281 15.9168C588.285 15.9061 588.29 15.8949 588.293 15.8837C588.313 15.811 588.315 15.7361 588.313 15.6614Z" fill="black"/>
<path d="M588.73 16.0748C588.694 16.0748 588.66 16.0748 588.626 16.0748C588.624 16.0748 588.621 16.0746 588.618 16.0743C588.618 15.7987 588.618 15.5242 588.618 15.2481C588.623 15.2481 588.626 15.2481 588.629 15.2481C588.71 15.2481 588.791 15.2478 588.873 15.2484C588.917 15.2487 588.96 15.2549 589.002 15.2711C589.083 15.3022 589.126 15.3621 589.138 15.4466C589.144 15.4903 589.142 15.5341 589.131 15.5767C589.108 15.6615 589.05 15.7099 588.967 15.7287C588.933 15.7367 588.896 15.7391 588.861 15.7408C588.818 15.7427 588.775 15.7413 588.731 15.7413C588.73 15.8523 588.73 15.9625 588.73 16.0748ZM588.73 15.6511C588.787 15.6494 588.843 15.6514 588.898 15.6456C588.957 15.6393 588.999 15.6065 589.015 15.548C589.021 15.5267 589.022 15.5032 589.022 15.481C589.019 15.407 588.975 15.3534 588.902 15.3443C588.846 15.3372 588.788 15.3397 588.73 15.3381C588.73 15.4433 588.73 15.5453 588.73 15.6511Z" fill="black"/>
<path d="M589.328 15.291C589.328 15.2653 589.328 15.2399 589.328 15.2126C589.393 15.2126 589.457 15.2106 589.518 15.2361C589.564 15.2549 589.58 15.2948 589.587 15.3391C589.591 15.3667 589.592 15.3949 589.593 15.4228C589.594 15.4769 589.591 15.5313 589.596 15.5849C589.603 15.6628 589.634 15.6893 589.712 15.6932C589.73 15.694 589.748 15.6932 589.766 15.6932C589.766 15.7197 589.766 15.7454 589.766 15.7733C589.762 15.7733 589.756 15.773 589.751 15.7733C589.732 15.7741 589.713 15.7738 589.694 15.776C589.632 15.7831 589.601 15.8121 589.597 15.8747C589.593 15.9335 589.595 15.9928 589.593 16.0516C589.592 16.0806 589.59 16.1095 589.585 16.138C589.576 16.1989 589.54 16.2345 589.479 16.2468C589.429 16.2566 589.38 16.258 589.328 16.2572C589.328 16.2309 589.328 16.2052 589.328 16.179C589.356 16.1776 589.383 16.1773 589.409 16.1749C589.461 16.17 589.484 16.1492 589.487 16.0978C589.49 16.0379 589.488 15.9778 589.491 15.9179C589.491 15.8889 589.494 15.8599 589.499 15.8315C589.507 15.785 589.536 15.756 589.58 15.7407C589.586 15.7386 589.592 15.7366 589.6 15.7339C589.596 15.7325 589.595 15.732 589.593 15.7314C589.526 15.7098 589.497 15.6762 589.494 15.6065C589.49 15.5461 589.491 15.4857 589.49 15.425C589.49 15.4072 589.489 15.3894 589.487 15.3719C589.482 15.3214 589.461 15.3 589.41 15.2951C589.383 15.2929 589.356 15.2924 589.328 15.291Z" fill="black"/>
<path d="M586.985 16.2575C586.927 16.2583 586.869 16.2577 586.813 16.2416C586.757 16.2255 586.734 16.1836 586.726 16.1306C586.722 16.1041 586.721 16.0768 586.72 16.05C586.719 15.9926 586.718 15.9349 586.717 15.8775C586.717 15.8693 586.715 15.8608 586.713 15.8529C586.702 15.8058 586.675 15.7826 586.625 15.7768C586.6 15.7741 586.576 15.7738 586.55 15.7722C586.55 15.7471 586.55 15.7216 586.55 15.6937C586.554 15.6937 586.559 15.694 586.563 15.6937C586.583 15.6929 586.603 15.6932 586.622 15.691C586.682 15.6842 586.712 15.656 586.717 15.5956C586.721 15.5417 586.719 15.4876 586.721 15.4335C586.722 15.402 586.722 15.3706 586.727 15.3394C586.736 15.2703 586.765 15.2396 586.834 15.2235C586.883 15.2118 586.934 15.2118 586.985 15.2129C586.985 15.2394 586.985 15.2645 586.985 15.2921C586.98 15.2921 586.975 15.2919 586.97 15.2921C586.947 15.293 586.924 15.293 586.901 15.2951C586.853 15.3001 586.832 15.3203 586.827 15.3679C586.824 15.3892 586.824 15.4111 586.823 15.4327C586.822 15.4909 586.823 15.5491 586.82 15.6068C586.818 15.6399 586.811 15.6738 586.785 15.6965C586.766 15.7129 586.741 15.7238 586.719 15.7372C586.719 15.7361 586.718 15.7353 586.717 15.7342C586.719 15.7353 586.721 15.7367 586.723 15.7372C586.787 15.7544 586.817 15.7995 586.82 15.8624C586.823 15.9242 586.822 15.9863 586.824 16.0483C586.824 16.0661 586.825 16.0839 586.827 16.1014C586.832 16.15 586.852 16.1705 586.901 16.1752C586.929 16.1779 586.957 16.1782 586.985 16.1795C586.985 16.2047 586.985 16.2301 586.985 16.2575Z" fill="black"/>
<path fill-rule="evenodd" clip-rule="evenodd" d="M251.078 1C247.996 1 245.716 3.69578 245.818 6.61927C245.916 9.42796 245.789 13.0656 244.872 16.0321C243.953 19.007 242.399 20.8921 239.86 21.1341V23.8659C242.399 24.1084 243.953 25.9926 244.872 28.9679C245.789 31.9344 245.916 35.572 245.818 38.3807C245.716 41.3038 247.996 44 251.079 44H282.658C285.74 44 288.02 41.3042 287.918 38.3807C287.82 35.572 287.947 31.9344 288.863 28.9679C289.783 25.9926 291.333 24.1077 293.873 23.8659V21.1341C291.334 20.8916 289.783 19.0074 288.863 16.0321C287.947 13.066 287.82 9.42796 287.918 6.61927C288.02 3.6962 285.74 1 282.658 1H251.078H251.078ZM276.479 27.4693C276.479 31.4948 273.474 33.9362 268.488 33.9362H260C259.757 33.9362 259.524 33.8398 259.353 33.6683C259.181 33.4967 259.085 33.264 259.085 33.0213V11.9788C259.085 11.7361 259.181 11.5034 259.353 11.3318C259.524 11.1603 259.757 11.0639 260 11.0639H268.44C272.597 11.0639 275.326 13.3145 275.326 16.77C275.326 19.1954 273.49 21.3667 271.152 21.747V21.8736C274.335 22.2225 276.479 24.4259 276.479 27.4693ZM267.562 13.9641H262.723V20.7958H266.799C269.95 20.7958 271.687 19.5277 271.687 17.2611C271.687 15.137 270.193 13.9641 267.562 13.9641ZM262.723 23.5064V31.0351H267.74C271.021 31.0351 272.759 29.7194 272.759 27.247C272.759 24.7745 270.973 23.506 267.529 23.506H262.723V23.5064Z" fill="#7952B3"/>
<path d="M85.5106 23.7074C85.5117 16.6087 87.5085 11.4649 91.5124 7.18166C96.2016 2.16508 102.082 -0.228124 108.932 0.0170948C114.049 0.199853 118.644 1.9962 122.525 5.35408C127.77 9.8918 130.446 15.7123 130.442 22.6455C130.439 28.5065 128.36 33.6653 124.339 37.922C119.822 42.7026 114.167 45.0889 107.6 44.9975C101.443 44.9107 96.1426 42.5719 91.8209 38.1718C88.1024 34.3848 85.3731 28.6754 85.5106 23.7074ZM106.793 20.0464C106.793 23.1498 106.793 26.2093 106.793 29.293C107.384 29.293 107.957 29.293 108.575 29.293C108.575 28.1826 108.575 27.0826 108.575 25.9294C109.926 27.5372 112.551 27.1138 113.298 25.1197C113.76 23.8843 113.751 22.6374 113.186 21.4206C112.481 19.903 110.445 19.3767 109.094 20.3657C108.925 20.4894 108.776 20.641 108.55 20.8388C108.55 20.5172 108.55 20.2835 108.55 20.0464C107.948 20.0464 107.386 20.0464 106.793 20.0464ZM103.295 23.3152C102.564 22.6212 101.75 22.4859 100.885 22.546C100.058 22.6039 99.3908 22.9705 99.0338 23.727C98.6998 24.4361 98.7195 25.1729 99.1586 25.8565C99.749 26.7761 100.966 27.167 102.121 26.7738C102.529 26.6349 102.901 26.3863 103.286 26.1896C103.295 26.362 103.305 26.5494 103.315 26.731C103.917 26.731 104.487 26.731 105.07 26.731C105.07 25.2053 105.097 23.7131 105.06 22.2222C105.039 21.4194 104.717 20.7277 103.975 20.309C102.988 19.7515 101.939 19.7723 100.885 20.0302C100.252 20.1852 99.6647 20.4617 99.199 20.944C99.429 21.3408 99.6427 21.7109 99.8692 22.1007C100.484 21.564 101.153 21.2806 101.935 21.3118C102.731 21.3431 103.254 21.7595 103.293 22.4003C103.309 22.6698 103.295 22.9382 103.295 23.3152ZM95.2806 17.9042C95.2806 17.482 95.2806 17.0934 95.2806 16.6677C94.8866 16.6908 94.5307 16.7163 94.1748 16.7325C93.2342 16.7753 92.3248 17.7562 92.3282 18.7197C92.3317 19.5421 92.3063 20.3645 92.2889 21.1869C92.2785 21.7005 92.1826 22.1643 91.5829 22.2754C91.5829 22.6073 91.5829 22.9127 91.5829 23.2111C92.0902 23.3835 92.2439 23.5466 92.2647 24.0717C92.2947 24.8421 92.252 25.6171 92.3028 26.3863C92.3317 26.8235 92.3941 27.3 92.5951 27.676C93.1718 28.7552 94.1932 28.8546 95.2841 28.754C95.2841 28.3584 95.2841 27.9813 95.2841 27.5881C95.1223 27.5881 94.994 27.5788 94.8669 27.5892C93.835 27.6794 93.5797 27.1323 93.5773 26.3099C93.575 25.5638 93.5669 24.8166 93.5797 24.0706C93.5889 23.5396 93.4953 23.0619 93.003 22.7323C93.4526 22.42 93.582 21.9989 93.5785 21.5085C93.5716 20.6722 93.5693 19.8359 93.5785 18.9985C93.5866 18.242 93.9344 17.9065 94.689 17.9042C94.8785 17.9042 95.068 17.9042 95.2806 17.9042ZM122.978 22.7392C122.522 23.1163 122.403 23.3812 122.396 24.0116C122.387 24.8987 122.404 25.7871 122.366 26.6743C122.339 27.307 121.965 27.6066 121.331 27.5973C121.118 27.5938 120.907 27.5973 120.688 27.5973C120.688 28.0056 120.688 28.3711 120.688 28.7748C121.004 28.7748 121.299 28.791 121.591 28.7725C122.758 28.6962 123.575 27.9166 123.652 26.7448C123.704 25.9629 123.678 25.1764 123.678 24.3921C123.678 23.8519 123.74 23.3569 124.378 23.2077C124.378 23.0237 124.378 22.8688 124.378 22.7149C124.378 22.5634 124.378 22.4107 124.378 22.2661C123.863 22.0799 123.69 21.8335 123.681 21.239C123.672 20.5565 123.66 19.8741 123.682 19.1928C123.736 17.4913 122.587 16.4595 120.691 16.7348C120.691 17.1084 120.691 17.4855 120.691 17.9077C120.981 17.9077 121.247 17.9193 121.51 17.9054C121.905 17.8834 122.144 18.1009 122.28 18.427C122.359 18.6214 122.386 18.8492 122.389 19.0632C122.402 19.8741 122.388 20.6849 122.397 21.4958C122.403 21.9839 122.501 22.4431 122.978 22.7392ZM114.905 20.0476C114.905 22.2985 114.905 24.517 114.905 26.7437C115.495 26.7437 116.056 26.7437 116.636 26.7437C116.636 24.5043 116.636 22.2858 116.636 20.0476C116.054 20.0476 115.493 20.0476 114.905 20.0476ZM115.765 17.2114C115.166 17.2114 114.721 17.6497 114.719 18.2431C114.715 18.8516 115.175 19.3084 115.784 19.3015C116.369 19.2957 116.819 18.833 116.813 18.2443C116.807 17.6463 116.366 17.2102 115.765 17.2114Z" fill="black"/>
<path d="M106.794 20.0463C107.385 20.0463 107.947 20.0463 108.551 20.0463C108.551 20.2834 108.551 20.5171 108.551 20.8387C108.777 20.6409 108.926 20.4893 109.096 20.3656C110.445 19.3754 112.482 19.9017 113.187 21.4205C113.752 22.6373 113.762 23.8842 113.299 25.1196C112.553 27.1137 109.928 27.5371 108.577 25.9293C108.577 27.0825 108.577 28.1825 108.577 29.2929C107.958 29.2929 107.385 29.2929 106.795 29.2929C106.794 26.2092 106.794 23.1497 106.794 20.0463ZM108.554 23.373C108.554 23.6945 108.544 24.0161 108.558 24.3377C108.564 24.4591 108.588 24.6118 108.665 24.6916C109.498 25.5684 111.011 25.6366 111.566 24.355C111.787 23.8437 111.828 23.3198 111.693 22.7784C111.388 21.5535 110.144 21.0665 109.074 21.7432C108.705 21.9768 108.485 22.2556 108.549 22.7183C108.578 22.9323 108.554 23.1544 108.554 23.373Z" fill="#FEFAF6"/>
<path d="M103.296 23.3153C103.296 22.9382 103.31 22.6687 103.293 22.4015C103.254 21.7607 102.732 21.3443 101.936 21.313C101.153 21.2818 100.484 21.5652 99.8695 22.1019C99.6442 21.7121 99.4293 21.342 99.1993 20.9452C99.665 20.4629 100.252 20.1864 100.885 20.0314C101.939 19.7735 102.988 19.7527 103.975 20.3102C104.718 20.7301 105.041 21.4206 105.06 22.2234C105.098 23.7143 105.071 25.2065 105.071 26.7322C104.487 26.7322 103.917 26.7322 103.315 26.7322C103.306 26.5506 103.296 26.3632 103.286 26.1908C102.902 26.3875 102.531 26.635 102.122 26.775C100.966 27.1682 99.7482 26.7761 99.1589 25.8577C98.7209 25.1752 98.7001 24.4373 99.0341 23.7282C99.3911 22.9717 100.057 22.6051 100.885 22.5472C101.751 22.4859 102.565 22.6224 103.296 23.3153ZM103.289 24.7461C103.323 24.7288 103.357 24.7114 103.392 24.6952C103.264 24.4812 103.187 24.1978 103.002 24.066C102.449 23.6692 101.826 23.6045 101.185 23.8693C100.793 24.0301 100.613 24.3551 100.613 24.7484C100.614 25.0989 100.794 25.3788 101.131 25.5408C101.71 25.8184 102.274 25.7432 102.836 25.4933C103.155 25.3511 103.374 25.1429 103.289 24.7461Z" fill="#FEFAF6"/>
<path d="M95.2807 17.9042C95.0681 17.9042 94.8786 17.9031 94.6891 17.9042C93.9357 17.9065 93.5867 18.242 93.5786 18.9985C93.5694 19.8348 93.5705 20.671 93.5786 21.5085C93.5832 21.9989 93.4538 22.42 93.0032 22.7323C93.4943 23.0619 93.589 23.5396 93.5798 24.0706C93.5671 24.8166 93.5751 25.5639 93.5775 26.3099C93.5798 27.1323 93.8351 27.6795 94.867 27.5892C94.9941 27.5777 95.1224 27.5881 95.2842 27.5881C95.2842 27.9814 95.2842 28.3596 95.2842 28.754C94.1922 28.8547 93.1719 28.7563 92.5953 27.676C92.3942 27.3001 92.3318 26.8235 92.3029 26.3863C92.2532 25.6171 92.296 24.8432 92.2648 24.0717C92.244 23.5454 92.0903 23.3835 91.583 23.2111C91.583 22.9127 91.583 22.6074 91.583 22.2754C92.1827 22.1643 92.2786 21.7005 92.289 21.1869C92.3052 20.3645 92.3306 19.5421 92.3283 18.7197C92.3249 17.7562 93.2343 16.7753 94.1749 16.7325C94.5308 16.7163 94.8867 16.6909 95.2807 16.6677C95.2807 17.0934 95.2807 17.482 95.2807 17.9042Z" fill="#FEFAF6"/>
<path d="M122.978 22.7392C122.503 22.4431 122.404 21.985 122.399 21.4934C122.39 20.6826 122.404 19.8718 122.391 19.0609C122.387 18.8469 122.361 18.6202 122.281 18.4247C122.146 18.0974 121.907 17.8811 121.512 17.9031C121.247 17.9181 120.981 17.9054 120.692 17.9054C120.692 17.4832 120.692 17.1061 120.692 16.7325C122.588 16.4572 123.737 17.489 123.684 19.1905C123.662 19.8718 123.674 20.5542 123.683 21.2367C123.691 21.8312 123.863 22.0776 124.38 22.2638C124.38 22.4084 124.38 22.5611 124.38 22.7126C124.38 22.8664 124.38 23.0203 124.38 23.2054C123.742 23.3546 123.678 23.8496 123.679 24.3898C123.68 25.1741 123.706 25.9618 123.654 26.7425C123.576 27.9143 122.759 28.6939 121.592 28.7702C121.3 28.7887 121.005 28.7725 120.69 28.7725C120.69 28.37 120.69 28.0033 120.69 27.595C120.908 27.595 121.12 27.5927 121.332 27.595C121.967 27.6043 122.34 27.3047 122.368 26.672C122.406 25.7859 122.389 24.8976 122.398 24.0093C122.402 23.3812 122.521 23.1151 122.978 22.7392Z" fill="#FEFAF6"/>
<path d="M114.905 20.0475C115.493 20.0475 116.054 20.0475 116.636 20.0475C116.636 22.2868 116.636 24.5042 116.636 26.7436C116.056 26.7436 115.496 26.7436 114.905 26.7436C114.905 24.517 114.905 22.2996 114.905 20.0475Z" fill="#FEFAF6"/>
<path d="M115.765 17.2114C116.366 17.2114 116.807 17.6463 116.812 18.2444C116.817 18.8343 116.368 19.2958 115.783 19.3016C115.174 19.3074 114.715 18.8505 114.718 18.2432C114.722 17.6498 115.166 17.2114 115.765 17.2114Z" fill="#FEFAF6"/>
<path d="M108.553 23.3731C108.553 23.1545 108.578 22.9324 108.549 22.7173C108.485 22.2546 108.705 21.9758 109.073 21.7422C110.143 21.0644 111.388 21.5513 111.693 22.7774C111.828 23.3188 111.787 23.8439 111.566 24.354C111.012 25.6356 109.497 25.5674 108.664 24.6906C108.588 24.6096 108.564 24.457 108.558 24.3367C108.544 24.0174 108.553 23.6947 108.553 23.3731Z" fill="black"/>
<path d="M103.289 24.7462C103.374 25.1429 103.154 25.3512 102.836 25.4934C102.275 25.7433 101.71 25.8185 101.131 25.5409C100.794 25.3789 100.612 25.099 100.612 24.7485C100.611 24.3552 100.793 24.0302 101.184 23.8694C101.826 23.6057 102.448 23.6693 103.002 24.0661C103.187 24.1991 103.264 24.4813 103.391 24.6953C103.357 24.7127 103.323 24.7289 103.289 24.7462Z" fill="black"/>
<path d="M491.554 40.3458L488.263 0L527.571 0.0810782L524.091 40.3458L508.065 45L491.554 40.3458Z" fill="#1B73BA"/>
<path d="M508.065 41.1034V3.84241L524.253 3.89646L521.366 37.2339L508.065 41.1034Z" fill="#1C88C7"/>
<path d="M520.233 8.6051H495.331L496.006 13.4755H507.822L496.195 18.4817L496.869 23.19H514.001L513.38 29.7652L507.579 30.9019L502.319 29.549L501.914 25.8147H497.085L497.732 33.581L508.092 36.4763L518.021 33.3104L519.289 18.1297H508.793L520.232 13.3674L520.233 8.6051Z" fill="#FEFAF6"/>
</svg>
