<svg width="119" height="34" viewBox="0 0 119 34" fill="none" xmlns="http://www.w3.org/2000/svg">
<path d="M108.789 11.7856C108.503 11.7856 108.224 11.8445 107.978 11.984L100.176 16.4865C99.671 16.7773 99.364 17.3262 99.364 17.9104V26.8986C99.364 27.4823 99.671 28.0303 100.176 28.322L102.213 29.4976C103.203 29.9852 103.568 29.9777 104.019 29.9777C105.484 29.9777 106.321 29.089 106.321 27.5445V18.6719C106.321 18.5465 106.213 18.4565 106.089 18.4565H105.112C104.986 18.4565 104.88 18.5461 104.88 18.6719V27.5445C104.88 28.2292 104.166 28.9175 103.008 28.3389L100.887 27.0974C100.812 27.0569 100.755 26.9848 100.755 26.899V17.91C100.755 17.8247 100.812 17.738 100.887 17.6946L108.672 13.2091C108.744 13.1671 108.833 13.1671 108.904 13.2091L116.69 17.6946C116.764 17.7394 116.822 17.8219 116.822 17.91V26.8981C116.822 26.9838 116.779 27.072 116.706 27.1134L108.904 31.599C108.837 31.6386 108.745 31.6386 108.672 31.599L106.669 30.4079C106.608 30.3744 106.533 30.3744 106.471 30.4079C105.918 30.7212 105.814 30.7575 105.295 30.9375C105.167 30.9822 104.973 31.0515 105.361 31.2687L107.978 32.808C108.225 32.9503 108.505 33.0248 108.79 33.0234C109.075 33.0252 109.355 32.9508 109.602 32.808L117.404 28.322C117.909 28.0284 118.215 27.4823 118.215 26.8986V17.9104C118.215 17.3267 117.909 16.7787 117.404 16.487L109.602 11.9845C109.357 11.845 109.076 11.7856 108.789 11.7856Z" fill="#83CD29"/>
<path d="M110.877 18.2083C108.655 18.2083 107.332 19.153 107.332 20.7243C107.332 22.4286 108.645 22.8969 110.778 23.108C113.328 23.3577 113.527 23.7318 113.527 24.2336C113.527 25.1039 112.832 25.4752 111.192 25.4752C109.13 25.4752 108.677 24.9606 108.525 23.9358C108.507 23.8261 108.422 23.737 108.309 23.737H107.299C107.174 23.737 107.067 23.8444 107.067 23.9688C107.067 25.281 107.781 26.8326 111.192 26.8326C113.66 26.8326 115.084 25.8644 115.084 24.1677C115.084 22.486 113.934 22.0342 111.54 21.718C109.12 21.3981 108.889 21.2412 108.889 20.6753C108.889 20.2079 109.085 19.5827 110.877 19.5827C112.478 19.5827 113.07 19.9276 113.312 21.0066C113.333 21.1079 113.422 21.1884 113.527 21.1884H114.538C114.601 21.1884 114.661 21.1503 114.704 21.1055C114.746 21.0579 114.776 21.0042 114.77 20.9401C114.613 19.0823 113.373 18.2083 110.877 18.2083Z" fill="#83CD29"/>
<path d="M62.9227 0.000156083C62.8355 0.000156083 62.7496 0.0227722 62.6742 0.0661202C62.521 0.155643 62.4267 0.319141 62.4257 0.496773V13.1601C62.4257 13.2844 62.3677 13.3956 62.2602 13.4578C62.1527 13.5205 62.0198 13.5205 61.9123 13.4578L59.8414 12.2662C59.534 12.0886 59.1549 12.0886 58.8475 12.2662L50.5816 17.0336C50.2728 17.2117 50.0847 17.5542 50.0847 17.9109V27.4456C50.0847 27.8018 50.2728 28.1278 50.5816 28.3064L58.8475 33.0738C59.1549 33.2519 59.534 33.2519 59.8414 33.0738L68.1073 28.3064C68.4152 28.1293 68.6047 27.8008 68.6043 27.4456V3.67484C68.6038 3.3111 68.4076 2.97609 68.0908 2.79752L63.1712 0.0496295C63.0938 0.00628149 63.008 -0.00125744 62.9227 0.000156083ZM9.75011 11.9015C9.59263 11.9077 9.44458 11.9355 9.30313 12.0175L1.03725 16.7848C0.728887 16.962 0.539344 17.2904 0.540287 17.6456L0.556789 30.4413C0.556789 30.6189 0.648732 30.7848 0.80527 30.8715C0.958036 30.9634 1.14947 30.9634 1.30223 30.8715L6.20537 28.0576C6.51609 27.8729 6.71883 27.5525 6.71883 27.1968V21.2209C6.71883 20.8642 6.90649 20.5372 7.2158 20.3601L9.30266 19.152C9.45354 19.0643 9.62516 19.0186 9.79962 19.0196C9.96983 19.0196 10.1448 19.062 10.2966 19.152L12.3839 20.3601C12.6923 20.5368 12.8823 20.8656 12.8809 21.2209V27.1963C12.8809 27.5521 13.086 27.8748 13.3943 28.0572L18.2975 30.8715C18.4502 30.9634 18.6417 30.9634 18.7944 30.8715C18.9482 30.7824 19.0429 30.6185 19.0429 30.4408L19.059 17.6452C19.0608 17.2899 18.8713 16.9605 18.562 16.7843L10.2971 12.0175C10.1575 11.9355 10.0085 11.9081 9.85007 11.9015H9.75011ZM84.0256 12.0175C83.8531 12.0175 83.6838 12.0613 83.5287 12.1499L75.2628 16.9172C74.9549 17.0944 74.7649 17.4228 74.7658 17.778V27.3122C74.7658 27.6708 74.9681 27.9959 75.2793 28.1731L83.4787 32.841C83.7814 33.0134 84.1511 33.0266 84.4561 32.857L89.4253 30.0926C89.5828 30.005 89.6898 29.842 89.6903 29.6625C89.6921 29.4844 89.5969 29.3194 89.4418 29.2318L81.1264 24.4645C80.9708 24.3759 80.8614 24.1959 80.8614 24.0173V21.0381C80.8614 20.86 80.9717 20.6965 81.1264 20.6074L83.7102 19.1176C83.8639 19.0285 84.0535 19.0285 84.2072 19.1176L86.791 20.6074C86.9452 20.696 87.0399 20.86 87.0395 21.0376V23.3883C87.039 23.5659 87.1338 23.7299 87.288 23.8185C87.4431 23.908 87.6303 23.908 87.7849 23.8185L92.738 20.9387C93.0455 20.761 93.235 20.4326 93.235 20.0778V17.7771C93.235 17.4218 93.0464 17.0948 92.738 16.9162L84.5226 12.1499C84.3717 12.0627 84.2001 12.017 84.0256 12.0175ZM59.3115 19.135C59.3548 19.135 59.4053 19.1454 59.4439 19.168L62.2767 20.8067C62.3536 20.851 62.4092 20.9335 62.4092 21.0221V24.2996C62.4092 24.3886 62.3541 24.4706 62.2767 24.5149L59.4439 26.1536C59.3671 26.1974 59.2723 26.1974 59.1955 26.1536L56.3632 24.5149C56.2858 24.4701 56.2307 24.3886 56.2307 24.2996V21.0221C56.2307 20.9335 56.2863 20.852 56.3632 20.8067L59.1955 19.168C59.2304 19.1468 59.2704 19.1355 59.3115 19.135Z" fill="#404137"/>
<path d="M34.5801 11.9675C34.408 11.9675 34.2374 12.0114 34.0832 12.0999L25.8178 16.8508C25.5085 17.0284 25.3208 17.3719 25.3208 17.7281V27.2628C25.3208 27.6195 25.5089 27.9451 25.8178 28.1236L34.0836 32.8905C34.3911 33.0691 34.7701 33.0691 35.0776 32.8905L43.3434 28.1232C43.6513 27.946 43.8409 27.6176 43.8404 27.2623V17.7281C43.8404 17.3714 43.6528 17.0289 43.3434 16.8508L35.0776 12.0999C34.9262 12.0128 34.7551 11.9671 34.5801 11.9675ZM84.009 20.476C83.976 20.476 83.9397 20.476 83.91 20.4925L82.3196 21.4193C82.2592 21.4527 82.2215 21.5159 82.2201 21.5851V23.4058C82.2201 23.4745 82.2597 23.5372 82.3196 23.5716L83.91 24.4819C83.9694 24.5163 84.033 24.5163 84.092 24.4819L85.6823 23.5711C85.7422 23.5377 85.7804 23.4745 85.7818 23.4058V21.5847C85.7804 21.5159 85.7427 21.4527 85.6823 21.4193L84.092 20.492C84.0623 20.4751 84.042 20.4765 84.009 20.476Z" fill="#83CD29"/>
</svg>
