<?xml version="1.0" encoding="UTF-8"?>
<svg id="Layer_1" xmlns="http://www.w3.org/2000/svg" viewBox="0 0 81 26">
  <defs>
    <style>
      .cls-1 {
        fill: #fff;
      }
    </style>
  </defs>
  <path class="cls-1" d="M16.07,11.02c.02-2.01.16-4.13.89-6.18.59-1.65,1.5-3.07,3.18-3.75,2.32-.94,4.61-.86,6.69.66,1.28.94,1.91,2.33,2.33,3.81.65,2.33.73,4.71.62,7.1-.07,1.65-.29,3.29-.86,4.86-.6,1.64-1.54,3.01-3.19,3.75-2,.9-5.37.84-7.23-1.14-1.03-1.09-1.57-2.43-1.92-3.86-.4-1.67-.51-3.38-.52-5.24ZM26.9,11.18h-.09c0-.84.05-1.69-.01-2.53-.09-1.31-.25-2.6-.79-3.82-.58-1.31-1.57-2.03-3.03-2.03-1.48-.01-2.53.68-3.06,2.03-.31.81-.53,1.68-.65,2.54-.34,2.36-.32,4.73-.07,7.1.12,1.14.31,2.28.86,3.32.61,1.17,1.59,1.75,2.91,1.75s2.31-.56,2.92-1.74c.18-.35.33-.71.44-1.09.52-1.81.56-3.67.59-5.53Z"/>
  <path class="cls-1" d="M33.35,11.65c.03-2.63.17-4.77.9-6.81.59-1.65,1.5-3.07,3.18-3.75,2.32-.94,4.61-.86,6.69.66,1.28.94,1.91,2.33,2.33,3.81.65,2.33.73,4.71.62,7.1-.07,1.65-.29,3.26-.85,4.82-.54,1.52-1.39,2.8-2.84,3.6-1.97,1.09-5.85,1.18-7.84-1.24-.95-1.15-1.44-2.49-1.74-3.92-.12-.56-.22-1.13-.28-1.7-.09-1.01-.14-2.04-.17-2.58ZM44.09,11.17c0-.83.04-1.67,0-2.5-.09-1.31-.24-2.6-.78-3.82-.58-1.33-1.59-2.05-3.05-2.05-1.48,0-2.52.69-3.05,2.05-.31.81-.53,1.68-.66,2.54-.32,2.1-.3,4.22-.14,6.33.1,1.31.26,2.6.8,3.82.59,1.31,1.59,2.01,3.05,2,1.46,0,2.46-.71,3.04-2.02.12-.27.22-.54.3-.82.51-1.81.56-3.67.5-5.53Z"/>
  <path class="cls-1" d="M54.49,21.45h-2.6c-.06,0-.12,0-.19-.01V.89h.27c2.02,0,4.04,0,6.07,0,1.1,0,2.17.16,3.2.56,2.01.78,3.1,2.26,3.39,4.37.15,1.09.12,2.18-.17,3.24-.56,2.11-2.01,3.31-4.08,3.78-.86.2-1.77.26-2.65.3-1.06.05-2.13.01-3.23.01,0,2.76,0,5.5,0,8.3ZM54.49,10.91c1.41-.04,2.8,0,4.17-.14,1.46-.16,2.5-.97,2.9-2.43.15-.53.19-1.12.17-1.67-.06-1.84-1.16-3.18-2.99-3.4-1.39-.18-2.82-.12-4.26-.16v7.79Z"/>
  <path class="cls-1" d="M69.35,1.96V0c1.62,0,3.22-.05,4.74.58,1.14.47,1.53,1.46,1.7,2.56.11.69.14,1.39.16,2.08.03,1.35-.05,2.7.07,4.03.17,1.94.95,2.6,2.89,2.69.44.02.88,0,1.35,0v1.99c-.12,0-.25,0-.38,0-.48.02-.96.01-1.43.07-1.54.18-2.31.9-2.41,2.45-.1,1.46-.05,2.94-.1,4.4-.02.72-.08,1.44-.19,2.15-.23,1.52-1.13,2.4-2.65,2.71-1.24.24-2.48.28-3.75.26v-1.94c.67-.03,1.35-.04,2.01-.1,1.29-.12,1.85-.64,1.93-1.92.08-1.49.04-2.99.1-4.47.02-.72.09-1.44.21-2.15.2-1.16.93-1.88,2.02-2.26.15-.05.29-.1.49-.17-.09-.03-.13-.05-.18-.06-1.66-.54-2.37-1.37-2.47-3.11-.08-1.5-.05-3.01-.09-4.52,0-.44-.03-.88-.07-1.32-.13-1.26-.65-1.79-1.9-1.91-.67-.05-1.35-.07-2.06-.1Z"/>
  <path class="cls-1" d="M11.05,25.99c-1.45.02-2.88,0-4.27-.39-1.39-.4-1.97-1.44-2.17-2.76-.1-.66-.14-1.34-.15-2.01-.04-1.43-.05-2.86-.07-4.29,0-.2-.05-.41-.1-.61-.29-1.17-.95-1.75-2.18-1.89-.62-.07-1.24-.07-1.88-.12v-1.95c.11,0,.22,0,.34,0,.49-.02.98-.01,1.47-.07,1.5-.17,2.24-.87,2.35-2.37.1-1.34.05-2.69.1-4.03.03-.78.04-1.56.16-2.34.22-1.72.95-2.48,2.65-2.88C8.52-.02,9.78-.02,11.06.01v1.97c-.13,0-.26,0-.39,0-.57.02-1.15.02-1.72.07-1.19.12-1.7.63-1.84,1.81-.06.53-.07,1.07-.08,1.61-.03,1.45-.02,2.9-.09,4.33-.04.82-.22,1.67-.88,2.23-.48.41-1.08.68-1.63,1.01-.02-.03-.04-.05-.06-.07.05.03.1.06.16.07,1.6.43,2.33,1.55,2.42,3.11.07,1.54.05,3.08.09,4.62,0,.44.03.88.07,1.32.14,1.21.64,1.72,1.84,1.84.69.07,1.39.07,2.1.11,0,.63,0,1.26,0,1.94Z"/>
</svg>