<svg width="81" height="26" viewBox="0 0 81 26" fill="none" xmlns="http://www.w3.org/2000/svg">
<path d="M16.0728 11.0205C16.0932 9.0145 16.236 6.88608 16.9639 4.83926C17.5558 3.19364 18.4674 1.77243 20.1478 1.09242C22.4676 0.154016 24.7602 0.228816 26.8419 1.75203C28.1209 2.69044 28.7536 4.08445 29.1685 5.56686C29.8216 7.89249 29.8965 10.2725 29.7876 12.6661C29.7128 14.3185 29.5019 15.9574 28.9304 17.5214C28.3318 19.1602 27.393 20.527 25.7398 21.2682C23.7397 22.1658 20.3723 22.1046 18.5082 20.1258C17.4742 19.031 16.9367 17.6914 16.5898 16.2634C16.1884 14.5905 16.0796 12.8837 16.0728 11.0205ZM26.8963 11.1837C26.8691 11.1837 26.8351 11.1837 26.8079 11.1837C26.8079 10.3405 26.8555 9.4905 26.7943 8.65409C26.7059 7.34848 26.5426 6.04967 26.0051 4.83246C25.4269 3.52005 24.4337 2.80604 22.971 2.79924C21.4948 2.78564 20.4403 3.47925 19.9097 4.82566C19.5967 5.63487 19.379 6.50527 19.2566 7.36888C18.9164 9.7285 18.9368 12.1017 19.1817 14.4681C19.2974 15.6106 19.4947 16.7462 20.0389 17.7866C20.6512 18.9562 21.6308 19.541 22.9506 19.541C24.2704 19.541 25.2636 18.9766 25.8691 17.8002C26.046 17.4534 26.1956 17.0862 26.3045 16.7122C26.8215 14.9033 26.8623 13.0469 26.8963 11.1837Z" fill="black"/>
<path d="M33.3523 11.6462C33.3795 9.01458 33.5224 6.87936 34.2571 4.83254C34.849 3.18693 35.7606 1.76572 37.4409 1.08571C39.7607 0.147302 42.0533 0.222103 44.1351 1.74532C45.414 2.68372 46.0467 4.07774 46.4617 5.56015C47.1148 7.88577 47.1896 10.2658 47.0808 12.6594C47.0059 14.305 46.795 15.9234 46.2304 17.4807C45.6862 18.9971 44.8426 20.2823 43.3867 21.0847C41.4207 22.1727 37.5361 22.2611 35.5429 19.8471C34.5972 18.6979 34.1074 17.3583 33.8013 15.9302C33.6788 15.3658 33.5768 14.8014 33.5224 14.2302C33.4339 13.217 33.3863 12.1902 33.3523 11.6462ZM44.0942 11.1702C44.0942 10.3406 44.1351 9.50419 44.0874 8.67458C43.999 7.36897 43.8425 6.07016 43.3051 4.85294C42.7268 3.52013 41.72 2.80613 40.2505 2.79933C38.7743 2.79253 37.7266 3.49293 37.2028 4.84614C36.8899 5.65535 36.6722 6.52576 36.5429 7.38937C36.2232 9.49059 36.2436 11.6122 36.4 13.7202C36.4953 15.0258 36.6586 16.3246 37.2028 17.5419C37.7947 18.8543 38.7947 19.5479 40.2573 19.5411C41.7132 19.5343 42.7132 18.8339 43.2983 17.5215C43.4139 17.2563 43.516 16.9775 43.5976 16.6987C44.1079 14.8898 44.1555 13.0266 44.0942 11.1702Z" fill="black"/>
<path d="M54.4894 21.4518C53.5778 21.4518 52.7343 21.4518 51.8907 21.4518C51.8295 21.4518 51.775 21.445 51.7002 21.4382C51.7002 14.5837 51.7002 7.75648 51.7002 0.888419C51.8022 0.888419 51.8839 0.888419 51.9655 0.888419C53.986 0.888419 56.0065 0.881619 58.0338 0.895219C59.1291 0.902019 60.204 1.05842 61.238 1.45962C63.2517 2.23483 64.3334 3.72404 64.6259 5.82526C64.7756 6.91327 64.7416 8.00128 64.4558 9.06209C63.8912 11.1701 62.4489 12.3737 60.3808 12.8429C59.5169 13.0401 58.6121 13.1013 57.7277 13.1421C56.6664 13.1897 55.5983 13.1557 54.4962 13.1557C54.4894 15.9166 54.4894 18.657 54.4894 21.4518ZM54.4894 10.9117C55.8977 10.8709 57.2855 10.9185 58.6597 10.7757C60.1155 10.6193 61.1632 9.8033 61.5646 8.34809C61.7142 7.81768 61.755 7.23288 61.7346 6.68207C61.6734 4.83925 60.5713 3.50644 58.7481 3.28204C57.3535 3.10524 55.9249 3.16644 54.4894 3.12564C54.4894 5.74366 54.4894 8.28009 54.4894 10.9117Z" fill="black"/>
<path d="M69.3472 1.95597C69.3472 1.31677 69.3472 0.684361 69.3472 0.00435493C70.9663 0.00435493 72.565 -0.0432455 74.0889 0.58916C75.225 1.05836 75.6195 2.05117 75.7896 3.15278C75.8985 3.83959 75.9257 4.54 75.9461 5.2336C75.9801 6.58001 75.8985 7.93323 76.0209 9.26604C76.191 11.2041 76.9665 11.8637 78.9122 11.9589C79.3544 11.9793 79.7966 11.9589 80.266 11.9589C80.266 12.6185 80.266 13.2577 80.266 13.9513C80.1435 13.9513 80.0143 13.9445 79.885 13.9513C79.4088 13.9717 78.9258 13.9649 78.4564 14.0193C76.9121 14.1961 76.1502 14.9169 76.0481 16.4741C75.9529 17.9361 76.0005 19.4117 75.9529 20.8737C75.9325 21.5946 75.8713 22.3154 75.7624 23.0226C75.5311 24.539 74.6331 25.423 73.116 25.729C71.8779 25.9738 70.6397 26.0078 69.3676 25.9874C69.3676 25.3346 69.3676 24.6954 69.3676 24.0426C70.0411 24.0086 70.7146 24.0018 71.3813 23.9406C72.6738 23.8182 73.2317 23.3014 73.3065 22.023C73.3882 20.5337 73.3473 19.0377 73.4018 17.5485C73.4222 16.8277 73.4902 16.1069 73.6127 15.3997C73.8099 14.2437 74.5379 13.5229 75.6332 13.1421C75.7828 13.0877 75.9257 13.0401 76.123 12.9721C76.0345 12.9381 75.9937 12.9245 75.9461 12.9109C74.2862 12.3737 73.5718 11.5373 73.4766 9.80324C73.395 8.30043 73.4222 6.79762 73.3882 5.288C73.3814 4.846 73.3609 4.40399 73.3133 3.96879C73.1841 2.71078 72.667 2.18037 71.4085 2.05797C70.735 2.00357 70.0615 1.98997 69.3472 1.95597Z" fill="black"/>
<path d="M11.0523 25.9943C9.60324 26.0147 8.17461 26.0011 6.77999 25.5999C5.38537 25.1987 4.80712 24.1582 4.60983 22.839C4.50779 22.1794 4.47377 21.4994 4.46017 20.833C4.41935 19.405 4.41254 17.9702 4.38533 16.5422C4.37853 16.3382 4.33091 16.1274 4.28329 15.9302C3.99756 14.7606 3.33767 14.1826 2.09952 14.0398C1.48045 13.9718 0.861374 13.965 0.215088 13.9242C0.215088 13.2985 0.215088 12.6661 0.215088 11.9725C0.323936 11.9725 0.439587 11.9793 0.555238 11.9725C1.04506 11.9521 1.53487 11.9589 2.02469 11.9045C3.52135 11.7345 4.26968 11.0341 4.37853 9.53131C4.47377 8.1917 4.43295 6.84529 4.47377 5.49888C4.50098 4.71687 4.51459 3.93486 4.63024 3.15966C4.85474 1.43924 5.58266 0.677634 7.28341 0.276431C8.52156 -0.0159718 9.78012 -0.0159718 11.0591 0.0112285C11.0591 0.670834 11.0591 1.29644 11.0591 1.98325C10.9298 1.98325 10.8006 1.97645 10.6713 1.98325C10.0999 2.00365 9.5216 2.00365 8.95015 2.05805C7.75963 2.18045 7.2494 2.68365 7.11334 3.86686C7.05211 4.39727 7.04531 4.94127 7.0317 5.47848C6.99769 6.92689 7.01129 8.3753 6.94326 9.81012C6.90245 10.6329 6.71876 11.4761 6.06568 12.0405C5.58947 12.4485 4.984 12.7205 4.43976 13.0537C4.41935 13.0265 4.39894 13.0061 4.37853 12.9789C4.43295 13.0061 4.48057 13.0401 4.535 13.0537C6.13371 13.4822 6.86843 14.6042 6.95007 16.1682C7.0249 17.705 7.00449 19.2486 7.03851 20.7922C7.04531 21.2342 7.06572 21.6762 7.11334 22.1114C7.2494 23.3218 7.75282 23.8318 8.95695 23.9474C9.65086 24.0154 10.3448 24.0222 11.0591 24.0562C11.0523 24.6819 11.0523 25.3143 11.0523 25.9943Z" fill="black"/>
</svg>
