<svg width="51" height="45" viewBox="0 0 51 45" fill="none" xmlns="http://www.w3.org/2000/svg">
<path d="M50.5056 22.5051C50.5056 19.1577 46.3157 15.9854 39.8918 14.0181C41.3743 7.46738 40.7154 2.25566 37.8123 0.587091C37.1432 0.195697 36.3608 0.0102997 35.5063 0.0102997V2.30716C35.9799 2.30716 36.3608 2.39986 36.6799 2.57496C38.08 3.37835 38.6874 6.4374 38.2138 10.3719C38.1006 11.3401 37.9153 12.3598 37.6888 13.4001C35.671 12.9057 33.468 12.5246 31.1517 12.2774C29.7619 10.3719 28.3206 8.64156 26.8691 7.12749C30.2251 4.00664 33.3753 2.29686 35.5166 2.29686V0C32.6856 0 28.9795 2.01877 25.2322 5.52071C21.485 2.03937 17.7789 0.0411995 14.9479 0.0411995V2.33806C17.0789 2.33806 20.2393 4.03754 23.5954 7.13779C22.1541 8.65187 20.7129 10.3719 19.3437 12.2774C17.0171 12.5246 14.814 12.9057 12.7963 13.4104C12.5595 12.3804 12.3845 11.3813 12.2609 10.4234C11.7771 6.4889 12.3742 3.42985 13.764 2.61616C14.0728 2.43076 14.4743 2.34836 14.9479 2.34836V0.0514992C14.0831 0.0514992 13.3007 0.236896 12.6213 0.62829C9.72846 2.29686 9.0799 7.49828 10.5726 14.0284C4.16934 16.0059 0 19.168 0 22.5051C0 25.8526 4.18993 29.0249 10.6138 30.9922C9.13137 37.5429 9.79023 42.7546 12.6933 44.4232C13.3625 44.8146 14.1449 45 15.0096 45C17.8407 45 21.5467 42.9812 25.294 39.4793C29.0413 42.9606 32.7473 44.9588 35.5784 44.9588C36.4431 44.9588 37.2255 44.7734 37.905 44.382C40.7978 42.7134 41.4463 37.512 39.9536 30.9819C46.3363 29.0146 50.5056 25.8423 50.5056 22.5051ZM37.102 15.6352C36.7211 16.9638 36.2475 18.3337 35.7122 19.7036C35.2901 18.8796 34.8475 18.0556 34.3636 17.2316C33.89 16.4076 33.3856 15.6043 32.8812 14.8215C34.343 15.0378 35.7534 15.3056 37.102 15.6352ZM32.387 26.6045C31.584 27.995 30.7605 29.3133 29.906 30.539C28.3721 30.6729 26.8176 30.745 25.2528 30.745C23.6983 30.745 22.1438 30.6729 20.6202 30.5493C19.7658 29.3236 18.9319 28.0156 18.1289 26.6354C17.3465 25.2861 16.6362 23.9162 15.9876 22.536C16.6259 21.1559 17.3465 19.7757 18.1186 18.4264C18.9216 17.0359 19.7452 15.7176 20.5996 14.4919C22.1335 14.358 23.688 14.2859 25.2528 14.2859C26.8073 14.2859 28.3618 14.358 29.8854 14.4816C30.7399 15.7073 31.5737 17.0153 32.3767 18.3955C33.1591 19.7448 33.8695 21.1147 34.518 22.4948C33.8695 23.875 33.1591 25.2552 32.387 26.6045ZM35.7122 25.2655C36.2681 26.6457 36.7417 28.0259 37.1329 29.3648C35.7843 29.6944 34.3636 29.9725 32.8915 30.1888C33.3959 29.3957 33.9003 28.5821 34.3739 27.7478C34.8475 26.9238 35.2901 26.0895 35.7122 25.2655ZM25.2734 36.2554C24.316 35.2666 23.3586 34.1646 22.4115 32.9595C23.338 33.0007 24.2851 33.0316 25.2425 33.0316C26.2102 33.0316 27.1676 33.011 28.1044 32.9595C27.1779 34.1646 26.2205 35.2666 25.2734 36.2554ZM17.6142 30.1888C16.1523 29.9725 14.742 29.7047 13.3934 29.3751C13.7743 28.0465 14.2478 26.6766 14.7831 25.3067C15.2052 26.1307 15.6479 26.9547 16.1317 27.7787C16.6156 28.6027 17.1097 29.406 17.6142 30.1888ZM25.2219 8.75486C26.1793 9.74365 27.1367 10.8457 28.0839 12.0508C27.1573 12.0096 26.2102 11.9787 25.2528 11.9787C24.2851 11.9787 23.3277 11.9993 22.3909 12.0508C23.3174 10.8457 24.2748 9.74365 25.2219 8.75486ZM17.6039 14.8215C17.0994 15.6146 16.595 16.4282 16.1214 17.2625C15.6479 18.0865 15.2052 18.9105 14.7831 19.7345C14.2272 18.3543 13.7537 16.9741 13.3625 15.6352C14.7111 15.3159 16.1317 15.0378 17.6039 14.8215ZM8.28721 27.7169C4.6429 26.1616 2.28542 24.1222 2.28542 22.5051C2.28542 20.8881 4.6429 18.8384 8.28721 17.2934C9.17255 16.9123 10.1402 16.5724 11.1388 16.2531C11.7256 18.2719 12.4977 20.3731 13.4551 22.5257C12.508 24.6681 11.7462 26.759 11.1697 28.7674C10.1505 28.4482 9.18285 28.098 8.28721 27.7169ZM13.8257 42.4353C12.4257 41.6319 11.8183 38.5729 12.2918 34.6384C12.4051 33.6702 12.5904 32.6505 12.8169 31.6102C14.8346 32.1046 17.0377 32.4857 19.354 32.7329C20.7438 34.6384 22.185 36.3687 23.6366 37.8828C20.2805 41.0037 17.1303 42.7134 14.989 42.7134C14.5258 42.7031 14.1346 42.6104 13.8257 42.4353ZM38.2447 34.5869C38.7285 38.5214 38.1314 41.5805 36.7417 42.3941C36.4328 42.5795 36.0313 42.6619 35.5578 42.6619C33.4268 42.6619 30.2663 40.9625 26.9103 37.8622C28.3515 36.3481 29.7928 34.6281 31.162 32.7226C33.4886 32.4754 35.6916 32.0943 37.7094 31.5896C37.9461 32.6299 38.1315 33.629 38.2447 34.5869ZM42.2081 27.7169C41.3228 28.098 40.3551 28.4379 39.3565 28.7572C38.7697 26.7384 37.9976 24.6372 37.0402 22.4845C37.9873 20.3422 38.7491 18.2513 39.3256 16.2428C40.3448 16.5621 41.3125 16.9123 42.2184 17.2934C45.8627 18.8487 48.2202 20.8881 48.2202 22.5051C48.2099 24.1222 45.8525 26.1719 42.2081 27.7169Z" fill="#61DAFB"/>
<path d="M25.2425 27.2123C27.8408 27.2123 29.9472 25.1049 29.9472 22.5052C29.9472 19.9056 27.8408 17.7982 25.2425 17.7982C22.6442 17.7982 20.5378 19.9056 20.5378 22.5052C20.5378 25.1049 22.6442 27.2123 25.2425 27.2123Z" fill="#61DAFB"/>
</svg>
