<svg width="51" height="38" viewBox="0 0 51 38" fill="none" xmlns="http://www.w3.org/2000/svg">
<path d="M43.3051 21.5214C41.5569 21.5312 40.0431 21.9511 38.7734 22.5762C38.3047 21.6484 37.8359 20.8377 37.7578 20.2323C37.6699 19.5291 37.5625 19.0993 37.6699 18.2594C37.7773 17.4194 38.2656 16.2279 38.2656 16.1303C38.2557 16.0424 38.1581 15.6126 37.1522 15.6029C36.1464 15.5931 35.277 15.7982 35.1794 16.0619C35.0817 16.3256 34.8864 16.9311 34.7594 17.5562C34.5836 18.4742 32.7475 21.7264 31.7025 23.4356C31.3607 22.7715 31.0677 22.1855 31.009 21.7166C30.9212 21.0135 30.8137 20.5837 30.9212 19.7439C31.0286 18.9038 31.517 17.7124 31.517 17.6148C31.5072 17.5269 31.4095 17.0971 30.4037 17.0874C29.3976 17.0776 28.5285 17.2827 28.4308 17.5464C28.3332 17.8101 28.2258 18.4351 28.0109 19.0407C27.8057 19.6462 25.3641 25.0764 24.7293 26.4925C24.407 27.2152 24.1238 27.7914 23.9186 28.1821C23.7135 28.5727 23.9089 28.2114 23.8893 28.2505C23.7135 28.5825 23.6159 28.7681 23.6159 28.7681V28.7779C23.4791 29.0221 23.3326 29.2564 23.2642 29.2564C23.2154 29.2564 23.1177 28.602 23.2837 27.7036C23.6451 25.8186 24.5241 22.879 24.5144 22.7716C24.5144 22.7227 24.6803 22.205 23.9478 21.9414C23.2349 21.6777 22.9811 22.1172 22.9224 22.1172C22.8638 22.1172 22.8149 22.2735 22.8149 22.2735C22.8149 22.2735 23.606 18.9627 21.3011 18.9627C19.8557 18.9627 17.8633 20.5351 16.8769 21.9708C16.2519 22.3126 14.9236 23.0353 13.5172 23.8069C12.9801 24.0999 12.4234 24.4124 11.896 24.6957L11.7887 24.5783C8.99546 21.5995 3.82899 19.4899 4.04385 15.4857C4.12198 14.0305 4.62984 10.1922 13.9667 5.54339C21.6138 1.73447 27.7374 2.77948 28.8019 5.1039C30.3157 8.4245 25.5301 14.5969 17.5803 15.4857C14.5527 15.8275 12.9606 14.6555 12.5603 14.216C12.1404 13.757 12.0818 13.7375 11.9255 13.8254C11.6716 13.9621 11.8278 14.3723 11.9255 14.6165C12.1599 15.2317 13.1365 16.3256 14.7968 16.8725C16.2519 17.3511 19.807 17.6148 24.1043 15.9545C28.9192 14.0891 32.6793 8.91283 31.5757 4.58628C30.4525 0.181597 23.1472 -1.26384 16.2423 1.18754C12.1305 2.65252 7.67698 4.93787 4.47358 7.93618C0.664651 11.4912 0.0591292 14.5969 0.313058 15.8861C1.2019 20.4861 7.54025 23.4844 10.0795 25.7014C9.95257 25.7697 9.83537 25.838 9.72794 25.8967C8.4583 26.5217 3.62389 29.0513 2.41285 31.7272C1.04554 34.7548 2.62771 36.9329 3.68249 37.2258C6.9445 38.1341 10.2846 36.5031 12.0914 33.8173C13.8884 31.1316 13.6736 27.6449 12.8434 26.053L12.8141 25.9944L13.8102 25.4084C14.4549 25.0275 15.0897 24.6759 15.6463 24.3731C15.3339 25.2227 15.1092 26.2287 14.9921 27.6937C14.8553 29.4127 15.5585 31.6393 16.4863 32.5183C16.8965 32.8991 17.3849 32.909 17.6876 32.909C18.7619 32.909 19.2503 32.0201 19.7874 30.9557C20.4515 29.6567 21.0375 28.1527 21.0375 28.1527C21.0375 28.1527 20.305 32.2253 22.3072 32.2253C23.0397 32.2253 23.7721 31.278 24.1042 30.7896V30.7994C24.1042 30.7994 24.1237 30.7701 24.1628 30.7017C24.2038 30.6412 24.2429 30.5793 24.28 30.5163V30.4967C24.573 29.9889 25.2273 28.8267 26.204 26.9027C27.4638 24.422 28.6749 21.3163 28.6749 21.3163C28.6749 21.3163 28.7921 22.078 29.1535 23.3282C29.3682 24.0705 29.837 24.881 30.1984 25.6721C29.9054 26.0823 29.7296 26.3168 29.7296 26.3168L29.7394 26.3266C29.5051 26.6391 29.2413 26.9712 28.9679 27.3032C27.9717 28.4947 26.7802 29.8524 26.6239 30.243C26.4384 30.7019 26.4775 31.0438 26.8388 31.3173C27.1025 31.5127 27.5713 31.5516 28.0694 31.5127C28.9679 31.454 29.593 31.2294 29.9055 31.0926C30.3938 30.9168 30.9505 30.6531 31.4877 30.2624C32.4643 29.5398 33.0601 28.5143 33.0015 27.147C32.9722 26.395 32.728 25.6528 32.4252 24.9496C32.5131 24.8226 32.6011 24.6956 32.6889 24.5589C34.232 22.3028 35.4235 19.8222 35.4235 19.8222C35.4235 19.8222 35.5407 20.584 35.9021 21.8341C36.0876 22.4689 36.4588 23.1624 36.7909 23.8461C35.3454 25.0278 34.4371 26.3951 34.1246 27.2936C33.5484 28.9539 33.9976 29.706 34.8473 29.8818C35.2281 29.9599 35.7751 29.7841 36.1852 29.6083C36.6931 29.4423 37.3084 29.1589 37.8749 28.7391C38.8516 28.0164 39.7892 27.0104 39.7403 25.6529C39.711 25.0278 39.545 24.4125 39.3204 23.8265C40.5509 23.3187 42.1428 23.0257 44.1645 23.2698C48.5106 23.7777 49.3701 26.4928 49.2041 27.6257C49.0381 28.7587 48.1298 29.3837 47.827 29.579C47.5242 29.7646 47.4265 29.833 47.4558 29.9696C47.4949 30.1748 47.6316 30.165 47.8953 30.126C48.2567 30.0673 50.1807 29.1982 50.2588 27.1083C50.376 24.4221 47.827 21.4921 43.3051 21.5214ZM9.78654 32.8212C8.35087 34.3936 6.32921 34.9893 5.46976 34.4815C4.54194 33.9443 4.9032 31.6297 6.67103 29.9596C7.74535 28.9439 9.14195 28.0063 10.06 27.4301C10.2651 27.3031 10.5776 27.1176 10.9488 26.8929C11.0074 26.8539 11.0464 26.8343 11.0464 26.8343C11.1148 26.7953 11.1929 26.7464 11.271 26.6976C11.9254 29.0806 11.3003 31.1706 9.78654 32.8212ZM20.2855 25.6819C19.7874 26.9027 18.7326 30.0377 18.0978 29.8619C17.5508 29.7154 17.2188 27.3422 17.9903 24.9982C18.3809 23.8164 19.2111 22.4101 19.6994 21.8631C20.4906 20.9841 21.35 20.6911 21.5649 21.0525C21.8188 21.5214 20.598 24.9201 20.2855 25.6819ZM28.9484 29.8229C28.7335 29.9304 28.5382 30.0084 28.4503 29.9499C28.3819 29.9109 28.5381 29.7644 28.5381 29.7644C28.5381 29.7644 29.6222 28.6021 30.0519 28.065C30.296 27.7526 30.589 27.3912 30.9016 26.9809V27.0981C30.9017 28.5044 29.5539 29.442 28.9484 29.8229ZM35.6285 28.2993C35.4723 28.1821 35.4919 27.8207 36.0192 26.6878C36.2244 26.2386 36.6931 25.4865 37.5037 24.7736C37.6014 25.0666 37.6601 25.3497 37.6502 25.6135C37.6405 27.3715 36.3904 28.0258 35.6285 28.2993Z" fill="#CF649A"/>
</svg>
