<svg width="110" height="27" viewBox="0 0 110 27" fill="none" xmlns="http://www.w3.org/2000/svg">
<path d="M13.8609 2.41531H8.20213V19.9436H5.89033V2.41531H0.266113V0.345044H13.8609V2.41531ZM24.5227 5.93476L18.0704 22.1863C16.9317 25.0847 15.31 26.5339 13.2398 26.5339C12.6532 26.5339 12.1701 26.4649 11.7906 26.3614V24.3601C12.2736 24.5326 12.7222 24.6017 13.1018 24.6017C14.2404 24.6017 15.0685 23.9116 15.6551 22.5659L16.7592 19.909L11.3075 5.93476H13.7918L17.5873 16.7001C17.6218 16.8382 17.7253 17.1832 17.8634 17.7698H17.9324C17.9669 17.5627 18.0704 17.2177 18.2084 16.7346L22.1764 5.93476H24.5227ZM28.1802 17.9078H28.1112V26.3614H25.8684V5.93476H28.1112V8.38457H28.1802C29.2843 6.52133 30.906 5.58972 33.0108 5.58972C34.805 5.58972 36.2197 6.2108 37.2203 7.45295C38.221 8.69511 38.7385 10.3858 38.7385 12.4906C38.7385 14.8369 38.152 16.7001 37.0133 18.1148C35.8747 19.5295 34.322 20.2196 32.3552 20.2196C30.5955 20.2886 29.1808 19.495 28.1802 17.9078ZM28.1457 12.2836V14.2503C28.1457 15.4235 28.5252 16.3896 29.2843 17.1832C30.0434 17.9768 30.975 18.3909 32.1482 18.3909C33.4939 18.3909 34.5635 17.8733 35.3571 16.8382C36.1162 15.803 36.4958 14.3538 36.4958 12.4906C36.4958 10.9379 36.1507 9.69574 35.4261 8.83313C34.7015 7.93602 33.7354 7.52196 32.4932 7.52196C31.1821 7.52196 30.1469 7.97052 29.3533 8.86764C28.5252 9.76475 28.1457 10.9034 28.1457 12.2836ZM52.4713 13.4912H42.603C42.6375 15.0439 43.0516 16.2516 43.8452 17.1142C44.6388 17.9768 45.7429 18.3909 47.1576 18.3909C48.7448 18.3909 50.194 17.8733 51.5052 16.8382V18.9429C50.263 19.84 48.6413 20.2886 46.64 20.2886C44.6733 20.2886 43.1206 19.6675 41.982 18.3909C40.8433 17.1142 40.2912 15.32 40.2912 13.0427C40.2912 10.8689 40.9123 9.07466 42.1545 7.72899C43.3966 6.34881 44.9148 5.65872 46.7436 5.65872C48.5723 5.65872 49.987 6.2453 50.9876 7.45295C51.9882 8.6261 52.5058 10.2823 52.5058 12.3871L52.4713 13.4912ZM50.1595 11.5935C50.1595 10.2823 49.849 9.28169 49.2279 8.5571C48.6068 7.8325 47.7442 7.48746 46.6746 7.48746C45.6049 7.48746 44.7078 7.86701 43.9832 8.6261C43.2586 9.3852 42.7756 10.3858 42.603 11.5935H50.1595ZM53.5754 19.2535V17.7008C54.9901 18.5979 56.4048 19.0464 57.854 19.0464C59.3722 19.0464 60.5453 18.7359 61.3389 18.0803C62.1325 17.4247 62.5121 16.5621 62.5121 15.4235C62.5121 14.4228 62.236 13.6292 61.7185 13.0082C61.2009 12.4216 60.0278 11.5935 58.268 10.5584C56.2668 9.3852 55.0246 8.41908 54.5071 7.65998C53.9895 6.86638 53.7135 5.96926 53.7135 4.96864C53.7135 3.58846 54.2655 2.41531 55.3352 1.44919C56.4048 0.483062 57.854 0 59.6482 0C60.8214 0 61.9945 0.207027 63.1332 0.586575V2.00126C61.9945 1.48369 60.7524 1.20765 59.4412 1.20765C58.0955 1.20765 57.0604 1.5527 56.2668 2.20828C55.4732 2.89837 55.0936 3.72648 55.0936 4.76161C55.0936 5.76224 55.3697 6.55584 55.8872 7.14241C56.4048 7.72899 57.5779 8.5571 59.3377 9.55772C61.1664 10.5929 62.3741 11.5245 62.9951 12.3181C63.6162 13.1117 63.8923 14.0433 63.8923 15.1129C63.8923 16.6311 63.3747 17.8388 62.3396 18.8049C61.3044 19.771 59.8207 20.2196 57.923 20.2196C57.2329 20.2196 56.4738 20.1161 55.5767 19.909C54.6796 19.702 54.024 19.5295 53.5754 19.2535ZM75.5547 19.3225C74.5196 19.9436 73.2775 20.2886 71.8283 20.2886C69.9305 20.2886 68.3778 19.633 67.2047 18.3218C66.0315 17.0107 65.445 15.32 65.445 13.1807C65.445 10.9724 66.1005 9.14367 67.4117 7.72899C68.7229 6.31431 70.4136 5.58972 72.4839 5.58972C73.5535 5.58972 74.5886 5.79674 75.5892 6.2453V7.65998C74.5886 7.0389 73.4845 6.72836 72.3113 6.72836C70.6551 6.72836 69.344 7.31494 68.3088 8.48809C67.2737 9.66124 66.7906 11.2139 66.7906 13.0772C66.7906 14.9059 67.2737 16.3551 68.2053 17.4592C69.1369 18.5634 70.3791 19.1154 71.8973 19.1154C73.312 19.1154 74.5196 18.7359 75.5547 18.0113V19.3225ZM83.9048 7.24593C83.4908 6.93539 83.0077 6.79737 82.4211 6.79737C81.317 6.79737 80.3854 7.38395 79.6608 8.52259C78.9017 9.66124 78.5566 11.2829 78.5566 13.3877V19.9781H77.3145V5.93476H78.5566V9.04016H78.6256C78.9362 7.97052 79.4537 7.14241 80.1438 6.55584C80.8339 5.96926 81.6275 5.65872 82.5591 5.65872C83.0767 5.65872 83.5598 5.72773 83.9393 5.90026V7.24593H83.9048ZM85.9061 2.41531C85.63 2.41531 85.3885 2.3118 85.1815 2.10477C84.9745 1.89774 84.8709 1.65621 84.8709 1.34567C84.8709 1.03513 84.9745 0.793602 85.1815 0.62108C85.3885 0.448557 85.63 0.345044 85.9061 0.345044C86.1821 0.345044 86.4236 0.448557 86.6652 0.62108C86.8722 0.793602 86.9757 1.03513 86.9757 1.34567C86.9757 1.62171 86.8722 1.89774 86.6652 2.10477C86.4236 2.3118 86.1821 2.41531 85.9061 2.41531ZM85.285 19.9436V5.93476H86.5272V19.9436H85.285ZM90.8402 17.4592H90.7712V26.3959H89.529V5.93476H90.7712V8.83313H90.8402C91.3578 7.798 92.0479 7.0044 92.9795 6.45233C93.9111 5.90026 94.9462 5.62422 96.0504 5.62422C97.8446 5.62422 99.2248 6.2453 100.225 7.45295C101.226 8.69511 101.709 10.3513 101.709 12.4561C101.709 14.8024 101.123 16.7001 99.9839 18.1493C98.8452 19.5985 97.327 20.3231 95.4638 20.3231C93.3935 20.2886 91.8408 19.357 90.8402 17.4592ZM90.7712 12.2491V14.0088C90.7712 15.4235 91.2198 16.6311 92.0824 17.6318C92.9795 18.6324 94.1181 19.15 95.5673 19.15C96.982 19.15 98.1551 18.5289 99.0523 17.3212C99.9494 16.0791 100.398 14.4919 100.398 12.4906C100.398 10.7309 99.9839 9.3507 99.1558 8.31556C98.3277 7.28043 97.258 6.76287 95.8778 6.76287C94.2561 6.76287 92.9795 7.31494 92.0824 8.41908C91.1852 9.52322 90.7712 10.7654 90.7712 12.2491ZM109.335 19.7365C108.679 20.0471 108.058 20.1851 107.506 20.1851C105.436 20.1851 104.4 18.9429 104.4 16.4586V7.10791H101.882V5.96926H104.4V2.3118L105.022 2.10477L105.643 1.89774V5.96926H109.335V7.10791H105.643V16.3551C105.643 17.3212 105.781 18.0113 106.091 18.4599C106.402 18.9084 106.919 19.1154 107.644 19.1154C108.161 19.1154 108.713 18.9429 109.335 18.5979V19.7365Z" fill="#007ACC"/>
</svg>
